<svg version="1.1" xmlns="http://www.w3.org/2000/svg" viewBox="0 0 448.55829185283255 358.29247723957724" width="448.55829185283255" height="358.29247723957724">
  <!-- svg-source:excalidraw -->
  
  <defs>
    <style class="style-fonts">
      @font-face {
        font-family: "Virgil";
        src: url("https://excalidraw.com/Virgil.woff2");
      }
      @font-face {
        font-family: "Cascadia";
        src: url("https://excalidraw.com/Cascadia.woff2");
      }
      @font-face {
        font-family: "Assistant";
        src: url("https://excalidraw.com/Assistant-Regular.woff2");
      }
    </style>
    
  </defs>
  <rect x="0" y="0" width="448.55829185283255" height="358.29247723957724" fill="#161923"></rect><g stroke-linecap="round" transform="translate(204.58629551498416 217.39650176852524) rotate(0 65.447987735526 65.447987735526)"><path d="M130.9 65.45 C130.9 68.08, 130.74 70.73, 130.42 73.34 C130.1 75.95, 129.62 78.56, 128.99 81.11 C128.36 83.66, 127.58 86.2, 126.64 88.66 C125.71 91.11, 124.62 93.53, 123.4 95.86 C122.18 98.19, 120.8 100.46, 119.31 102.63 C117.82 104.79, 116.18 106.88, 114.44 108.85 C112.69 110.82, 110.82 112.69, 108.85 114.44 C106.88 116.18, 104.79 117.82, 102.63 119.31 C100.46 120.8, 98.19 122.18, 95.86 123.4 C93.53 124.62, 91.11 125.71, 88.66 126.64 C86.2 127.58, 83.66 128.36, 81.11 128.99 C78.56 129.62, 75.95 130.1, 73.34 130.42 C70.73 130.74, 68.08 130.9, 65.45 130.9 C62.82 130.9, 60.17 130.74, 57.56 130.42 C54.95 130.1, 52.34 129.62, 49.79 128.99 C47.23 128.36, 44.7 127.58, 42.24 126.64 C39.78 125.71, 37.36 124.62, 35.03 123.4 C32.7 122.18, 30.43 120.8, 28.27 119.31 C26.11 117.82, 24.02 116.18, 22.05 114.44 C20.08 112.69, 18.2 110.82, 16.46 108.85 C14.72 106.88, 13.08 104.79, 11.59 102.63 C10.09 100.46, 8.72 98.19, 7.5 95.86 C6.27 93.53, 5.19 91.11, 4.25 88.66 C3.32 86.2, 2.53 83.66, 1.9 81.11 C1.27 78.56, 0.79 75.95, 0.48 73.34 C0.16 70.73, 0 68.08, 0 65.45 C0 62.82, 0.16 60.17, 0.48 57.56 C0.79 54.95, 1.27 52.34, 1.9 49.79 C2.53 47.23, 3.32 44.7, 4.25 42.24 C5.19 39.78, 6.27 37.36, 7.5 35.03 C8.72 32.7, 10.09 30.43, 11.59 28.27 C13.08 26.11, 14.72 24.02, 16.46 22.05 C18.2 20.08, 20.08 18.2, 22.05 16.46 C24.02 14.72, 26.11 13.08, 28.27 11.59 C30.43 10.09, 32.7 8.72, 35.03 7.5 C37.36 6.27, 39.78 5.19, 42.24 4.25 C44.7 3.32, 47.23 2.53, 49.79 1.9 C52.34 1.27, 54.95 0.79, 57.56 0.48 C60.17 0.16, 62.82 0, 65.45 0 C68.08 0, 70.73 0.16, 73.34 0.48 C75.95 0.79, 78.56 1.27, 81.11 1.9 C83.66 2.53, 86.2 3.32, 88.66 4.25 C91.11 5.19, 93.53 6.27, 95.86 7.5 C98.19 8.72, 100.46 10.09, 102.63 11.59 C104.79 13.08, 106.88 14.72, 108.85 16.46 C110.82 18.2, 112.69 20.08, 114.44 22.05 C116.18 24.02, 117.82 26.11, 119.31 28.27 C120.8 30.43, 122.18 32.7, 123.4 35.03 C124.62 37.36, 125.71 39.78, 126.64 42.24 C127.58 44.7, 128.36 47.23, 128.99 49.79 C129.62 52.34, 130.1 54.95, 130.42 57.56 C130.74 60.17, 130.9 62.82, 130.9 65.45" stroke="none" stroke-width="0" fill="#7950f2"></path><path d="M130.9 65.45 C130.9 68.08, 130.74 70.73, 130.42 73.34 C130.1 75.95, 129.62 78.56, 128.99 81.11 C128.36 83.66, 127.58 86.2, 126.64 88.66 C125.71 91.11, 124.62 93.53, 123.4 95.86 C122.18 98.19, 120.8 100.46, 119.31 102.63 C117.82 104.79, 116.18 106.88, 114.44 108.85 C112.69 110.82, 110.82 112.69, 108.85 114.44 C106.88 116.18, 104.79 117.82, 102.63 119.31 C100.46 120.8, 98.19 122.18, 95.86 123.4 C93.53 124.62, 91.11 125.71, 88.66 126.64 C86.2 127.58, 83.66 128.36, 81.11 128.99 C78.56 129.62, 75.95 130.1, 73.34 130.42 C70.73 130.74, 68.08 130.9, 65.45 130.9 C62.82 130.9, 60.17 130.74, 57.56 130.42 C54.95 130.1, 52.34 129.62, 49.79 128.99 C47.23 128.36, 44.7 127.58, 42.24 126.64 C39.78 125.71, 37.36 124.62, 35.03 123.4 C32.7 122.18, 30.43 120.8, 28.27 119.31 C26.11 117.82, 24.02 116.18, 22.05 114.44 C20.08 112.69, 18.2 110.82, 16.46 108.85 C14.72 106.88, 13.08 104.79, 11.59 102.63 C10.09 100.46, 8.72 98.19, 7.5 95.86 C6.27 93.53, 5.19 91.11, 4.25 88.66 C3.32 86.2, 2.53 83.66, 1.9 81.11 C1.27 78.56, 0.79 75.95, 0.48 73.34 C0.16 70.73, 0 68.08, 0 65.45 C0 62.82, 0.16 60.17, 0.48 57.56 C0.79 54.95, 1.27 52.34, 1.9 49.79 C2.53 47.23, 3.32 44.7, 4.25 42.24 C5.19 39.78, 6.27 37.36, 7.5 35.03 C8.72 32.7, 10.09 30.43, 11.59 28.27 C13.08 26.11, 14.72 24.02, 16.46 22.05 C18.2 20.08, 20.08 18.2, 22.05 16.46 C24.02 14.72, 26.11 13.08, 28.27 11.59 C30.43 10.09, 32.7 8.72, 35.03 7.5 C37.36 6.27, 39.78 5.19, 42.24 4.25 C44.7 3.32, 47.23 2.53, 49.79 1.9 C52.34 1.27, 54.95 0.79, 57.56 0.48 C60.17 0.16, 62.82 0, 65.45 0 C68.08 0, 70.73 0.16, 73.34 0.48 C75.95 0.79, 78.56 1.27, 81.11 1.9 C83.66 2.53, 86.2 3.32, 88.66 4.25 C91.11 5.19, 93.53 6.27, 95.86 7.5 C98.19 8.72, 100.46 10.09, 102.63 11.59 C104.79 13.08, 106.88 14.72, 108.85 16.46 C110.82 18.2, 112.69 20.08, 114.44 22.05 C116.18 24.02, 117.82 26.11, 119.31 28.27 C120.8 30.43, 122.18 32.7, 123.4 35.03 C124.62 37.36, 125.71 39.78, 126.64 42.24 C127.58 44.7, 128.36 47.23, 128.99 49.79 C129.62 52.34, 130.1 54.95, 130.42 57.56 C130.74 60.17, 130.9 62.82, 130.9 65.45" stroke="transparent" stroke-width="1" fill="none"></path></g><g transform="translate(218.89658782995434 271.34449024564674) rotate(0 51.1376953125 11.5)"><text x="51.1376953125" y="18.400390625" font-family="Helvetica, Segoe UI Emoji" font-size="20px" fill="#ffffff" text-anchor="middle" style="white-space: pre;" direction="ltr" dominant-baseline="alphabetic">interactions</text></g><g stroke-linecap="round" transform="translate(10.000000000000227 107.98566799999992) rotate(0 65.447987735526 65.447987735526)"><path d="M130.9 65.45 C130.9 68.08, 130.74 70.73, 130.42 73.34 C130.1 75.95, 129.62 78.56, 128.99 81.11 C128.36 83.66, 127.58 86.2, 126.64 88.66 C125.71 91.11, 124.62 93.53, 123.4 95.86 C122.18 98.19, 120.8 100.46, 119.31 102.63 C117.82 104.79, 116.18 106.88, 114.44 108.85 C112.69 110.82, 110.82 112.69, 108.85 114.44 C106.88 116.18, 104.79 117.82, 102.63 119.31 C100.46 120.8, 98.19 122.18, 95.86 123.4 C93.53 124.62, 91.11 125.71, 88.66 126.64 C86.2 127.58, 83.66 128.36, 81.11 128.99 C78.56 129.62, 75.95 130.1, 73.34 130.42 C70.73 130.74, 68.08 130.9, 65.45 130.9 C62.82 130.9, 60.17 130.74, 57.56 130.42 C54.95 130.1, 52.34 129.62, 49.79 128.99 C47.23 128.36, 44.7 127.58, 42.24 126.64 C39.78 125.71, 37.36 124.62, 35.03 123.4 C32.7 122.18, 30.43 120.8, 28.27 119.31 C26.11 117.82, 24.02 116.18, 22.05 114.44 C20.08 112.69, 18.2 110.82, 16.46 108.85 C14.72 106.88, 13.08 104.79, 11.59 102.63 C10.09 100.46, 8.72 98.19, 7.5 95.86 C6.27 93.53, 5.19 91.11, 4.25 88.66 C3.32 86.2, 2.53 83.66, 1.9 81.11 C1.27 78.56, 0.79 75.95, 0.48 73.34 C0.16 70.73, 0 68.08, 0 65.45 C0 62.82, 0.16 60.17, 0.48 57.56 C0.79 54.95, 1.27 52.34, 1.9 49.79 C2.53 47.23, 3.32 44.7, 4.25 42.24 C5.19 39.78, 6.27 37.36, 7.5 35.03 C8.72 32.7, 10.09 30.43, 11.59 28.27 C13.08 26.11, 14.72 24.02, 16.46 22.05 C18.2 20.08, 20.08 18.2, 22.05 16.46 C24.02 14.72, 26.11 13.08, 28.27 11.59 C30.43 10.09, 32.7 8.72, 35.03 7.5 C37.36 6.27, 39.78 5.19, 42.24 4.25 C44.7 3.32, 47.23 2.53, 49.79 1.9 C52.34 1.27, 54.95 0.79, 57.56 0.48 C60.17 0.16, 62.82 0, 65.45 0 C68.08 0, 70.73 0.16, 73.34 0.48 C75.95 0.79, 78.56 1.27, 81.11 1.9 C83.66 2.53, 86.2 3.32, 88.66 4.25 C91.11 5.19, 93.53 6.27, 95.86 7.5 C98.19 8.72, 100.46 10.09, 102.63 11.59 C104.79 13.08, 106.88 14.72, 108.85 16.46 C110.82 18.2, 112.69 20.08, 114.44 22.05 C116.18 24.02, 117.82 26.11, 119.31 28.27 C120.8 30.43, 122.18 32.7, 123.4 35.03 C124.62 37.36, 125.71 39.78, 126.64 42.24 C127.58 44.7, 128.36 47.23, 128.99 49.79 C129.62 52.34, 130.1 54.95, 130.42 57.56 C130.74 60.17, 130.9 62.82, 130.9 65.45" stroke="none" stroke-width="0" fill="#15aabf"></path><path d="M130.9 65.45 C130.9 68.08, 130.74 70.73, 130.42 73.34 C130.1 75.95, 129.62 78.56, 128.99 81.11 C128.36 83.66, 127.58 86.2, 126.64 88.66 C125.71 91.11, 124.62 93.53, 123.4 95.86 C122.18 98.19, 120.8 100.46, 119.31 102.63 C117.82 104.79, 116.18 106.88, 114.44 108.85 C112.69 110.82, 110.82 112.69, 108.85 114.44 C106.88 116.18, 104.79 117.82, 102.63 119.31 C100.46 120.8, 98.19 122.18, 95.86 123.4 C93.53 124.62, 91.11 125.71, 88.66 126.64 C86.2 127.58, 83.66 128.36, 81.11 128.99 C78.56 129.62, 75.95 130.1, 73.34 130.42 C70.73 130.74, 68.08 130.9, 65.45 130.9 C62.82 130.9, 60.17 130.74, 57.56 130.42 C54.95 130.1, 52.34 129.62, 49.79 128.99 C47.23 128.36, 44.7 127.58, 42.24 126.64 C39.78 125.71, 37.36 124.62, 35.03 123.4 C32.7 122.18, 30.43 120.8, 28.27 119.31 C26.11 117.82, 24.02 116.18, 22.05 114.44 C20.08 112.69, 18.2 110.82, 16.46 108.85 C14.72 106.88, 13.08 104.79, 11.59 102.63 C10.09 100.46, 8.72 98.19, 7.5 95.86 C6.27 93.53, 5.19 91.11, 4.25 88.66 C3.32 86.2, 2.53 83.66, 1.9 81.11 C1.27 78.56, 0.79 75.95, 0.48 73.34 C0.16 70.73, 0 68.08, 0 65.45 C0 62.82, 0.16 60.17, 0.48 57.56 C0.79 54.95, 1.27 52.34, 1.9 49.79 C2.53 47.23, 3.32 44.7, 4.25 42.24 C5.19 39.78, 6.27 37.36, 7.5 35.03 C8.72 32.7, 10.09 30.43, 11.59 28.27 C13.08 26.11, 14.72 24.02, 16.46 22.05 C18.2 20.08, 20.08 18.2, 22.05 16.46 C24.02 14.72, 26.11 13.08, 28.27 11.59 C30.43 10.09, 32.7 8.72, 35.03 7.5 C37.36 6.27, 39.78 5.19, 42.24 4.25 C44.7 3.32, 47.23 2.53, 49.79 1.9 C52.34 1.27, 54.95 0.79, 57.56 0.48 C60.17 0.16, 62.82 0, 65.45 0 C68.08 0, 70.73 0.16, 73.34 0.48 C75.95 0.79, 78.56 1.27, 81.11 1.9 C83.66 2.53, 86.2 3.32, 88.66 4.25 C91.11 5.19, 93.53 6.27, 95.86 7.5 C98.19 8.72, 100.46 10.09, 102.63 11.59 C104.79 13.08, 106.88 14.72, 108.85 16.46 C110.82 18.2, 112.69 20.08, 114.44 22.05 C116.18 24.02, 117.82 26.11, 119.31 28.27 C120.8 30.43, 122.18 32.7, 123.4 35.03 C124.62 37.36, 125.71 39.78, 126.64 42.24 C127.58 44.7, 128.36 47.23, 128.99 49.79 C129.62 52.34, 130.1 54.95, 130.42 57.56 C130.74 60.17, 130.9 62.82, 130.9 65.45" stroke="transparent" stroke-width="1" fill="none"></path></g><g transform="translate(41.541737627470184 161.93365647712142) rotate(0 33.90625 11.5)"><text x="33.90625" y="18.400390625" font-family="Helvetica, Segoe UI Emoji" font-size="20px" fill="#ffffff" text-anchor="middle" style="white-space: pre;" direction="ltr" dominant-baseline="alphabetic">widgets</text></g><g stroke-linecap="round" transform="translate(204.5862960000004 10) rotate(0 65.447987735526 65.447987735526)"><path d="M130.9 65.45 C130.9 68.08, 130.74 70.73, 130.42 73.34 C130.1 75.95, 129.62 78.56, 128.99 81.11 C128.36 83.66, 127.58 86.2, 126.64 88.66 C125.71 91.11, 124.62 93.53, 123.4 95.86 C122.18 98.19, 120.8 100.46, 119.31 102.63 C117.82 104.79, 116.18 106.88, 114.44 108.85 C112.69 110.82, 110.82 112.69, 108.85 114.44 C106.88 116.18, 104.79 117.82, 102.63 119.31 C100.46 120.8, 98.19 122.18, 95.86 123.4 C93.53 124.62, 91.11 125.71, 88.66 126.64 C86.2 127.58, 83.66 128.36, 81.11 128.99 C78.56 129.62, 75.95 130.1, 73.34 130.42 C70.73 130.74, 68.08 130.9, 65.45 130.9 C62.82 130.9, 60.17 130.74, 57.56 130.42 C54.95 130.1, 52.34 129.62, 49.79 128.99 C47.23 128.36, 44.7 127.58, 42.24 126.64 C39.78 125.71, 37.36 124.62, 35.03 123.4 C32.7 122.18, 30.43 120.8, 28.27 119.31 C26.11 117.82, 24.02 116.18, 22.05 114.44 C20.08 112.69, 18.2 110.82, 16.46 108.85 C14.72 106.88, 13.08 104.79, 11.59 102.63 C10.09 100.46, 8.72 98.19, 7.5 95.86 C6.27 93.53, 5.19 91.11, 4.25 88.66 C3.32 86.2, 2.53 83.66, 1.9 81.11 C1.27 78.56, 0.79 75.95, 0.48 73.34 C0.16 70.73, 0 68.08, 0 65.45 C0 62.82, 0.16 60.17, 0.48 57.56 C0.79 54.95, 1.27 52.34, 1.9 49.79 C2.53 47.23, 3.32 44.7, 4.25 42.24 C5.19 39.78, 6.27 37.36, 7.5 35.03 C8.72 32.7, 10.09 30.43, 11.59 28.27 C13.08 26.11, 14.72 24.02, 16.46 22.05 C18.2 20.08, 20.08 18.2, 22.05 16.46 C24.02 14.72, 26.11 13.08, 28.27 11.59 C30.43 10.09, 32.7 8.72, 35.03 7.5 C37.36 6.27, 39.78 5.19, 42.24 4.25 C44.7 3.32, 47.23 2.53, 49.79 1.9 C52.34 1.27, 54.95 0.79, 57.56 0.48 C60.17 0.16, 62.82 0, 65.45 0 C68.08 0, 70.73 0.16, 73.34 0.48 C75.95 0.79, 78.56 1.27, 81.11 1.9 C83.66 2.53, 86.2 3.32, 88.66 4.25 C91.11 5.19, 93.53 6.27, 95.86 7.5 C98.19 8.72, 100.46 10.09, 102.63 11.59 C104.79 13.08, 106.88 14.72, 108.85 16.46 C110.82 18.2, 112.69 20.08, 114.44 22.05 C116.18 24.02, 117.82 26.11, 119.31 28.27 C120.8 30.43, 122.18 32.7, 123.4 35.03 C124.62 37.36, 125.71 39.78, 126.64 42.24 C127.58 44.7, 128.36 47.23, 128.99 49.79 C129.62 52.34, 130.1 54.95, 130.42 57.56 C130.74 60.17, 130.9 62.82, 130.9 65.45" stroke="none" stroke-width="0" fill="#228be6"></path><path d="M130.9 65.45 C130.9 68.08, 130.74 70.73, 130.42 73.34 C130.1 75.95, 129.62 78.56, 128.99 81.11 C128.36 83.66, 127.58 86.2, 126.64 88.66 C125.71 91.11, 124.62 93.53, 123.4 95.86 C122.18 98.19, 120.8 100.46, 119.31 102.63 C117.82 104.79, 116.18 106.88, 114.44 108.85 C112.69 110.82, 110.82 112.69, 108.85 114.44 C106.88 116.18, 104.79 117.82, 102.63 119.31 C100.46 120.8, 98.19 122.18, 95.86 123.4 C93.53 124.62, 91.11 125.71, 88.66 126.64 C86.2 127.58, 83.66 128.36, 81.11 128.99 C78.56 129.62, 75.95 130.1, 73.34 130.42 C70.73 130.74, 68.08 130.9, 65.45 130.9 C62.82 130.9, 60.17 130.74, 57.56 130.42 C54.95 130.1, 52.34 129.62, 49.79 128.99 C47.23 128.36, 44.7 127.58, 42.24 126.64 C39.78 125.71, 37.36 124.62, 35.03 123.4 C32.7 122.18, 30.43 120.8, 28.27 119.31 C26.11 117.82, 24.02 116.18, 22.05 114.44 C20.08 112.69, 18.2 110.82, 16.46 108.85 C14.72 106.88, 13.08 104.79, 11.59 102.63 C10.09 100.46, 8.72 98.19, 7.5 95.86 C6.27 93.53, 5.19 91.11, 4.25 88.66 C3.32 86.2, 2.53 83.66, 1.9 81.11 C1.27 78.56, 0.79 75.95, 0.48 73.34 C0.16 70.73, 0 68.08, 0 65.45 C0 62.82, 0.16 60.17, 0.48 57.56 C0.79 54.95, 1.27 52.34, 1.9 49.79 C2.53 47.23, 3.32 44.7, 4.25 42.24 C5.19 39.78, 6.27 37.36, 7.5 35.03 C8.72 32.7, 10.09 30.43, 11.59 28.27 C13.08 26.11, 14.72 24.02, 16.46 22.05 C18.2 20.08, 20.08 18.2, 22.05 16.46 C24.02 14.72, 26.11 13.08, 28.27 11.59 C30.43 10.09, 32.7 8.72, 35.03 7.5 C37.36 6.27, 39.78 5.19, 42.24 4.25 C44.7 3.32, 47.23 2.53, 49.79 1.9 C52.34 1.27, 54.95 0.79, 57.56 0.48 C60.17 0.16, 62.82 0, 65.45 0 C68.08 0, 70.73 0.16, 73.34 0.48 C75.95 0.79, 78.56 1.27, 81.11 1.9 C83.66 2.53, 86.2 3.32, 88.66 4.25 C91.11 5.19, 93.53 6.27, 95.86 7.5 C98.19 8.72, 100.46 10.09, 102.63 11.59 C104.79 13.08, 106.88 14.72, 108.85 16.46 C110.82 18.2, 112.69 20.08, 114.44 22.05 C116.18 24.02, 117.82 26.11, 119.31 28.27 C120.8 30.43, 122.18 32.7, 123.4 35.03 C124.62 37.36, 125.71 39.78, 126.64 42.24 C127.58 44.7, 128.36 47.23, 128.99 49.79 C129.62 52.34, 130.1 54.95, 130.42 57.56 C130.74 60.17, 130.9 62.82, 130.9 65.45" stroke="transparent" stroke-width="1" fill="none"></path></g><g transform="translate(248.35459612747036 63.947988477121726) rotate(0 21.6796875 11.5)"><text x="21.6796875" y="18.400390625" font-family="Helvetica, Segoe UI Emoji" font-size="20px" fill="#ffffff" text-anchor="middle" style="white-space: pre;" direction="ltr" dominant-baseline="alphabetic">state</text></g><g stroke-linecap="round"><g transform="translate(76.71624229377971 247.6694320446278) rotate(0 58.03214900399462 20.321760625028503)"><path d="M0 0 C4.94 6.77, 10.31 34, 29.66 40.64 C49 47.29, 101.66 40.01, 116.06 39.88 M0 0 C4.94 6.77, 10.31 34, 29.66 40.64 C49 47.29, 101.66 40.01, 116.06 39.88" stroke="#15aabf" stroke-width="2" fill="none"></path></g><g transform="translate(76.71624229377971 247.6694320446278) rotate(0 58.03214900399462 20.321760625028503)"><path d="M116.06 39.88 L102.94 47.14 L102.06 34.49 L116.06 39.88" stroke="none" stroke-width="0" fill="#15aabf" fill-rule="evenodd"></path><path d="M116.06 39.88 C112.45 41.88, 108.83 43.88, 102.94 47.14 M116.06 39.88 C110.95 42.71, 105.83 45.54, 102.94 47.14 M102.94 47.14 C102.64 42.88, 102.35 38.62, 102.06 34.49 M102.94 47.14 C102.66 43.11, 102.38 39.07, 102.06 34.49 M102.06 34.49 C106.72 36.28, 111.37 38.07, 116.06 39.88 M102.06 34.49 C107.38 36.54, 112.7 38.58, 116.06 39.88 M116.06 39.88 C116.06 39.88, 116.06 39.88, 116.06 39.88 M116.06 39.88 C116.06 39.88, 116.06 39.88, 116.06 39.88" stroke="#15aabf" stroke-width="2" fill="none"></path></g></g><mask></mask><g transform="translate(68.62058502686932 299.89424881668185) rotate(0 36.1376953125 11.5)"><text x="36.1376953125" y="18.400390625" font-family="Helvetica, Segoe UI Emoji" font-size="20px" fill="#15aabf" text-anchor="middle" style="white-space: pre;" direction="ltr" dominant-baseline="alphabetic">produce</text></g><g stroke-linecap="round"><g transform="translate(336.9668032797563 240.46444637728882) rotate(0 7.776984215072957 -59.837149860259785)"><path d="M0 0 C3.71 -9.38, 23.36 -36.35, 22.24 -56.3 C21.13 -76.24, -1.87 -109.11, -6.69 -119.67 M0 0 C3.71 -9.38, 23.36 -36.35, 22.24 -56.3 C21.13 -76.24, -1.87 -109.11, -6.69 -119.67" stroke="#7950f2" stroke-width="2" fill="none"></path></g><g transform="translate(336.9668032797563 240.46444637728882) rotate(0 7.776984215072957 -59.837149860259785)"><path d="M-6.69 -119.67 L5.48 -110.91 L-5.58 -104.72 L-6.69 -119.67" stroke="none" stroke-width="0" fill="#7950f2" fill-rule="evenodd"></path><path d="M-6.69 -119.67 C-1.83 -116.17, 3.04 -112.67, 5.48 -110.91 M-6.69 -119.67 C-2.75 -116.84, 1.2 -114, 5.48 -110.91 M5.48 -110.91 C1.67 -108.78, -2.14 -106.64, -5.58 -104.72 M5.48 -110.91 C1.36 -108.6, -2.76 -106.3, -5.58 -104.72 M-5.58 -104.72 C-5.91 -109.23, -6.25 -113.74, -6.69 -119.67 M-5.58 -104.72 C-5.91 -109.25, -6.25 -113.79, -6.69 -119.67 M-6.69 -119.67 C-6.69 -119.67, -6.69 -119.67, -6.69 -119.67 M-6.69 -119.67 C-6.69 -119.67, -6.69 -119.67, -6.69 -119.67" stroke="#7950f2" stroke-width="2" fill="none"></path></g></g><mask></mask><g transform="translate(372.94305747783255 173.43365517296172) rotate(0 32.8076171875 11.5)"><text x="32.8076171875" y="18.400390625" font-family="Helvetica, Segoe UI Emoji" font-size="20px" fill="#7950f2" text-anchor="middle" style="white-space: pre;" direction="ltr" dominant-baseline="alphabetic">change</text></g><g stroke-linecap="round"><g transform="translate(204.35708533140723 37.98141704325121) rotate(0 -53.325606853425256 31.47346375895603)"><path d="M0 0 C-10.98 0.5, -48.13 -7.47, -65.91 3.02 C-83.68 13.51, -99.86 52.96, -106.65 62.95 M0 0 C-10.98 0.5, -48.13 -7.47, -65.91 3.02 C-83.68 13.51, -99.86 52.96, -106.65 62.95" stroke="#228be6" stroke-width="2" fill="none"></path></g><g transform="translate(204.35708533140723 37.98141704325121) rotate(0 -53.325606853425256 31.47346375895603)"><path d="M-106.65 62.95 L-105.67 47.98 L-94.55 54.08 L-106.65 62.95" stroke="none" stroke-width="0" fill="#228be6" fill-rule="evenodd"></path><path d="M-106.65 62.95 C-106.38 58.76, -106.1 54.56, -105.67 47.98 M-106.65 62.95 C-106.43 59.59, -106.21 56.24, -105.67 47.98 M-105.67 47.98 C-101.76 50.13, -97.84 52.27, -94.55 54.08 M-105.67 47.98 C-101.72 50.14, -97.78 52.31, -94.55 54.08 M-94.55 54.08 C-98.24 56.78, -101.93 59.49, -106.65 62.95 M-94.55 54.08 C-97.98 56.6, -101.42 59.11, -106.65 62.95 M-106.65 62.95 C-106.65 62.95, -106.65 62.95, -106.65 62.95 M-106.65 62.95 C-106.65 62.95, -106.65 62.95, -106.65 62.95" stroke="#228be6" stroke-width="2" fill="none"></path></g></g><mask></mask><g transform="translate(42.253351763375576 35.551629088620984) rotate(0 34.462890625 11.5)"><text x="34.462890625" y="18.400390625" font-family="Helvetica, Segoe UI Emoji" font-size="20px" fill="#228be6" text-anchor="middle" style="white-space: pre;" direction="ltr" dominant-baseline="alphabetic">dictates</text></g></svg>