<svg version="1.1" xmlns="http://www.w3.org/2000/svg" viewBox="0 0 513.0162246203845 364.71764549099555" width="513.0162246203845" height="364.71764549099555">
  <!-- svg-source:excalidraw -->
  
  <defs>
    <style class="style-fonts">
      @font-face {
        font-family: "Virgil";
        src: url("https://excalidraw.com/Virgil.woff2");
      }
      @font-face {
        font-family: "Cascadia";
        src: url("https://excalidraw.com/Cascadia.woff2");
      }
      @font-face {
        font-family: "Assistant";
        src: url("https://excalidraw.com/Assistant-Regular.woff2");
      }
    </style>
    
  </defs>
  <rect x="0" y="0" width="513.0162246203845" height="364.71764549099555" fill="#161923"></rect><g stroke-linecap="round" transform="translate(185.67082325618412 14.859025097626045) rotate(0 70.83728984965012 39.10382185341945)"><path d="M0 0 L141.67 0 L141.67 78.21 L0 78.21" stroke="none" stroke-width="0" fill="#ffffff"></path><path d="M0 0 C30.36 0, 60.73 0, 141.67 0 M0 0 C31.26 0, 62.53 0, 141.67 0 M141.67 0 C141.67 21.15, 141.67 42.3, 141.67 78.21 M141.67 0 C141.67 28.3, 141.67 56.6, 141.67 78.21 M141.67 78.21 C108.89 78.21, 76.1 78.21, 0 78.21 M141.67 78.21 C107.98 78.21, 74.28 78.21, 0 78.21 M0 78.21 C0 48.41, 0 18.61, 0 0 M0 78.21 C0 49.97, 0 21.74, 0 0" stroke="transparent" stroke-width="2" fill="none"></path></g><g transform="translate(234.18323096788424 10) rotate(0 22.324883422045218 43.96284735418129)"><text x="0" y="70.34204906992905" font-family="Helvetica, Segoe UI Emoji" font-size="76.45712583335883px" fill="#1e1e1e" text-anchor="start" style="white-space: pre;" direction="ltr" dominant-baseline="alphabetic">+</text></g><g stroke-linecap="round" transform="translate(185.67082095548437 276.429546244844) rotate(0 70.83728984965012 39.10382185341945)"><path d="M0 0 L141.67 0 L141.67 78.21 L0 78.21" stroke="none" stroke-width="0" fill="#ffffff"></path><path d="M0 0 C40.73 0, 81.45 0, 141.67 0 M0 0 C30.69 0, 61.37 0, 141.67 0 M141.67 0 C141.67 20.68, 141.67 41.36, 141.67 78.21 M141.67 0 C141.67 26.66, 141.67 53.31, 141.67 78.21 M141.67 78.21 C88.85 78.21, 36.02 78.21, 0 78.21 M141.67 78.21 C86.25 78.21, 30.83 78.21, 0 78.21 M0 78.21 C0 54.76, 0 31.32, 0 0 M0 78.21 C0 48.98, 0 19.76, 0 0" stroke="transparent" stroke-width="2" fill="none"></path></g><g transform="translate(243.7777043666092 266.79195078263297) rotate(0 12.730410111902017 43.96284735418129)"><text x="0" y="70.34204906992903" font-family="Helvetica, Segoe UI Emoji" font-size="76.45712583335882px" fill="#1e1e1e" text-anchor="start" style="white-space: pre;" direction="ltr" dominant-baseline="alphabetic">-</text></g><g transform="translate(213.98630443949628 138.39597491741483) rotate(0 42.521809728611174 43.96284735418129)"><text x="0" y="70.34204906992905" font-family="Helvetica, Segoe UI Emoji" font-size="76.45712583335883px" fill="#ffffff" text-anchor="start" style="white-space: pre;" direction="ltr" dominant-baseline="alphabetic">15</text></g><g stroke-linecap="round" transform="translate(10.000000649595336 32.625166408853715) rotate(0 63.498880969117124 21.337680649541312)"><path d="M0 0 L127 0 L127 42.68 L0 42.68" stroke="none" stroke-width="0" fill="#15aabf"></path><path d="M0 0 C28.84 0, 57.69 0, 127 0 M0 0 C27.21 0, 54.41 0, 127 0 M127 0 C127 11.72, 127 23.43, 127 42.68 M127 0 C127 13.59, 127 27.18, 127 42.68 M127 42.68 C92.42 42.68, 57.84 42.68, 0 42.68 M127 42.68 C97.07 42.68, 67.14 42.68, 0 42.68 M0 42.68 C0 33.48, 0 24.28, 0 0 M0 42.68 C0 27.8, 0 12.91, 0 0" stroke="transparent" stroke-width="1" fill="none"></path></g><g transform="translate(45.69614724371252 42.46284705839503) rotate(0 27.802734375 11.5)"><text x="27.802734375" y="18.400390625" font-family="Helvetica, Segoe UI Emoji" font-size="20px" fill="#ffffff" text-anchor="middle" style="white-space: pre;" direction="ltr" dominant-baseline="alphabetic">button</text></g><g stroke-linecap="round" transform="translate(114.37468000228228 32.6251664088536) rotate(0 22.623083098308882 21.33768057862426)"><path d="M23 0 L45.25 22 L23 42.68 L0 22" stroke="none" stroke-width="0" fill="#15aabf" fill-rule="evenodd"></path><path d="M23 0 C28.14 5.09, 33.29 10.18, 45.25 22 M23 0 C28.9 5.84, 34.8 11.67, 45.25 22 M45.25 22 C39.39 27.45, 33.53 32.89, 23 42.68 M45.25 22 C39.11 27.71, 32.96 33.41, 23 42.68 M23 42.68 C14.01 34.6, 5.03 26.52, 0 22 M23 42.68 C16.78 37.09, 10.57 31.5, 0 22 M0 22 C6.53 15.76, 13.06 9.51, 23 0 M0 22 C4.75 17.46, 9.49 12.92, 23 0" stroke="transparent" stroke-width="1" fill="none"></path></g><g transform="translate(85.81042255179091 12.225166125850706) rotate(0 23.125 9.199999999999989)"><text x="0" y="14.720312499999999" font-family="Helvetica, Segoe UI Emoji" font-size="16px" fill="#15aabf" text-anchor="start" style="white-space: pre;" direction="ltr" dominant-baseline="alphabetic">widget</text></g><g stroke-linecap="round" transform="translate(10 289.41711811416315) rotate(0 63.498880969117124 21.337680649541312)"><path d="M0 0 L127 0 L127 42.68 L0 42.68" stroke="none" stroke-width="0" fill="#15aabf"></path><path d="M0 0 C28.36 0, 56.73 0, 127 0 M0 0 C44.53 0, 89.06 0, 127 0 M127 0 C127 9.49, 127 18.97, 127 42.68 M127 0 C127 15.17, 127 30.33, 127 42.68 M127 42.68 C88.24 42.68, 49.49 42.68, 0 42.68 M127 42.68 C81.79 42.68, 36.59 42.68, 0 42.68 M0 42.68 C0 30.65, 0 18.63, 0 0 M0 42.68 C0 31.46, 0 20.24, 0 0" stroke="transparent" stroke-width="1" fill="none"></path></g><g transform="translate(45.69614659411718 299.25479876370446) rotate(0 27.802734375 11.5)"><text x="27.802734375" y="18.400390625" font-family="Helvetica, Segoe UI Emoji" font-size="20px" fill="#ffffff" text-anchor="middle" style="white-space: pre;" direction="ltr" dominant-baseline="alphabetic">button</text></g><g stroke-linecap="round" transform="translate(114.37467935268705 289.41711811416315) rotate(0 22.623083098308882 21.33768057862426)"><path d="M23 0 L45.25 22 L23 42.68 L0 22" stroke="none" stroke-width="0" fill="#15aabf" fill-rule="evenodd"></path><path d="M23 0 C30.85 7.77, 38.71 15.53, 45.25 22 M23 0 C29.46 6.39, 35.92 12.78, 45.25 22 M45.25 22 C37.8 28.92, 30.35 35.84, 23 42.68 M45.25 22 C38.62 28.16, 31.99 34.32, 23 42.68 M23 42.68 C14.41 34.95, 5.81 27.22, 0 22 M23 42.68 C16.33 36.68, 9.66 30.68, 0 22 M0 22 C5.56 16.68, 11.12 11.36, 23 0 M0 22 C6.16 16.11, 12.32 10.22, 23 0" stroke="transparent" stroke-width="1" fill="none"></path></g><g transform="translate(85.81042290219568 269.01711883116013) rotate(0 23.125 9.199999999999989)"><text x="0" y="14.720312499999999" font-family="Helvetica, Segoe UI Emoji" font-size="16px" fill="#15aabf" text-anchor="start" style="white-space: pre;" direction="ltr" dominant-baseline="alphabetic">widget</text></g><g stroke-linecap="round" transform="translate(10.00000078810001 161.02114231610176) rotate(0 63.498880969117124 21.337680649541312)"><path d="M0 0 L127 0 L127 42.68 L0 42.68" stroke="none" stroke-width="0" fill="#15aabf"></path><path d="M0 0 C32.68 0, 65.35 0, 127 0 M0 0 C30.36 0, 60.72 0, 127 0 M127 0 C127 14.14, 127 28.29, 127 42.68 M127 0 C127 16.52, 127 33.05, 127 42.68 M127 42.68 C90.66 42.68, 54.32 42.68, 0 42.68 M127 42.68 C95.61 42.68, 64.22 42.68, 0 42.68 M0 42.68 C0 32.89, 0 23.11, 0 0 M0 42.68 C0 26.75, 0 10.83, 0 0" stroke="transparent" stroke-width="1" fill="none"></path></g><g transform="translate(39.59263175721719 170.85882296564307) rotate(0 33.90625 11.5)"><text x="33.90625" y="18.400390625" font-family="Helvetica, Segoe UI Emoji" font-size="20px" fill="#ffffff" text-anchor="middle" style="white-space: pre;" direction="ltr" dominant-baseline="alphabetic">number</text></g><g stroke-linecap="round" transform="translate(114.37468014078706 161.02114231610176) rotate(0 22.623083098308882 21.33768057862426)"><path d="M23 0 L45.25 22 L23 42.68 L0 22" stroke="none" stroke-width="0" fill="#15aabf" fill-rule="evenodd"></path><path d="M23 0 C31.27 8.18, 39.54 16.35, 45.25 22 M23 0 C29.52 6.45, 36.05 12.9, 45.25 22 M45.25 22 C37.11 29.57, 28.96 37.13, 23 42.68 M45.25 22 C40.05 26.83, 34.86 31.66, 23 42.68 M23 42.68 C14.58 35.1, 6.15 27.53, 0 22 M23 42.68 C16.17 36.54, 9.34 30.4, 0 22 M0 22 C7.96 14.39, 15.92 6.78, 23 0 M0 22 C6.18 16.09, 12.36 10.18, 23 0" stroke="transparent" stroke-width="1" fill="none"></path></g><g transform="translate(85.81042284980731 140.62114261699764) rotate(0 23.125 9.199999999999989)"><text x="0" y="14.720312499999999" font-family="Helvetica, Segoe UI Emoji" font-size="16px" fill="#15aabf" text-anchor="start" style="white-space: pre;" direction="ltr" dominant-baseline="alphabetic">widget</text></g><g stroke-linecap="round" transform="translate(353.395380034837 32.62516770335071) rotate(0 22.62308309830894 21.33768057862426)"><path d="M23 0 L45.25 22 L23 42.68 L0 22" stroke="none" stroke-width="0" fill="#7950f2" fill-rule="evenodd"></path><path d="M23 0 C29.24 6.17, 35.47 12.33, 45.25 22 M23 0 C30.21 7.13, 37.42 14.26, 45.25 22 M45.25 22 C38.15 28.6, 31.05 35.2, 23 42.68 M45.25 22 C39.9 26.97, 34.55 31.94, 23 42.68 M23 42.68 C14.6 35.12, 6.19 27.57, 0 22 M23 42.68 C17.47 37.71, 11.94 32.74, 0 22 M0 22 C7.32 15, 14.64 8, 23 0 M0 22 C6.84 15.46, 13.67 8.92, 23 0" stroke="transparent" stroke-width="1" fill="none"></path></g><g stroke-linecap="round" transform="translate(376.01846268215013 32.62516670335083) rotate(0 63.49888096911718 21.337680649541312)"><path d="M0 0 L127 0 L127 42.68 L0 42.68" stroke="none" stroke-width="0" fill="#7950f2"></path><path d="M0 0 C37.99 0, 75.97 0, 127 0 M0 0 C45.99 0, 91.98 0, 127 0 M127 0 C127 15.53, 127 31.05, 127 42.68 M127 0 C127 15.36, 127 30.71, 127 42.68 M127 42.68 C97.49 42.68, 67.98 42.68, 0 42.68 M127 42.68 C100.17 42.68, 73.35 42.68, 0 42.68 M0 42.68 C0 30.65, 0 18.63, 0 0 M0 42.68 C0 33.5, 0 24.33, 0 0" stroke="transparent" stroke-width="1" fill="none"></path></g><g transform="translate(395.6110936512673 42.46284735289214) rotate(0 43.90625 11.5)"><text x="43.90625" y="18.400390625" font-family="Helvetica, Segoe UI Emoji" font-size="20px" fill="#ffffff" text-anchor="middle" style="white-space: pre;" direction="ltr" dominant-baseline="alphabetic">increment</text></g><g transform="translate(380.9558041697471 12.225166774602485) rotate(0 36.91015625 9.199999999999989)"><text x="0" y="14.720312499999999" font-family="Helvetica, Segoe UI Emoji" font-size="16px" fill="#7950f2" text-anchor="start" style="white-space: pre;" direction="ltr" dominant-baseline="alphabetic">interaction</text></g><g stroke-linecap="round" transform="translate(353.395375953192 289.4171193713456) rotate(0 22.623083098308882 21.33768057862426)"><path d="M23 0 L45.25 22 L23 42.68 L0 22" stroke="none" stroke-width="0" fill="#7950f2" fill-rule="evenodd"></path><path d="M23 0 C28.77 5.71, 34.54 11.41, 45.25 22 M23 0 C27.91 4.86, 32.83 9.72, 45.25 22 M45.25 22 C36.52 30.11, 27.79 38.22, 23 42.68 M45.25 22 C38.03 28.7, 30.82 35.41, 23 42.68 M23 42.68 C14.17 34.74, 5.34 26.8, 0 22 M23 42.68 C17.08 37.35, 11.16 32.03, 0 22 M0 22 C6.96 15.35, 13.91 8.69, 23 0 M0 22 C6.25 16.02, 12.5 10.05, 23 0" stroke="transparent" stroke-width="1" fill="none"></path></g><g stroke-linecap="round" transform="translate(376.01846260050536 289.41711737134574) rotate(0 63.498880969117124 21.337680649541312)"><path d="M0 0 L127 0 L127 42.68 L0 42.68" stroke="none" stroke-width="0" fill="#7950f2"></path><path d="M0 0 C33.21 0, 66.43 0, 127 0 M0 0 C50.71 0, 101.41 0, 127 0 M127 0 C127 9.03, 127 18.06, 127 42.68 M127 0 C127 11.93, 127 23.87, 127 42.68 M127 42.68 C77.15 42.68, 27.3 42.68, 0 42.68 M127 42.68 C83.04 42.68, 39.09 42.68, 0 42.68 M0 42.68 C0 33.18, 0 23.68, 0 0 M0 42.68 C0 26.74, 0 10.81, 0 0" stroke="transparent" stroke-width="1" fill="none"></path></g><g transform="translate(392.27124981962265 299.25479802088705) rotate(0 47.24609375 11.5)"><text x="47.24609375" y="18.400390625" font-family="Helvetica, Segoe UI Emoji" font-size="20px" fill="#ffffff" text-anchor="middle" style="white-space: pre;" direction="ltr" dominant-baseline="alphabetic">decrement</text></g><g transform="translate(380.9558033404319 269.01711854286873) rotate(0 36.91015625 9.199999999999989)"><text x="0" y="14.720312499999999" font-family="Helvetica, Segoe UI Emoji" font-size="16px" fill="#7950f2" text-anchor="start" style="white-space: pre;" direction="ltr" dominant-baseline="alphabetic">interaction</text></g><g stroke-linecap="round" transform="translate(353.39537524233685 161.02114415528467) rotate(0 22.623083098308882 21.33768057862426)"><path d="M23 0 L45.25 22 L23 42.68 L0 22" stroke="none" stroke-width="0" fill="#228be6" fill-rule="evenodd"></path><path d="M23 0 C30.21 7.13, 37.41 14.26, 45.25 22 M23 0 C28.04 4.98, 33.07 9.96, 45.25 22 M45.25 22 C37.47 29.22, 29.7 36.45, 23 42.68 M45.25 22 C39.18 27.64, 33.11 33.28, 23 42.68 M23 42.68 C17.8 38, 12.61 33.33, 0 22 M23 42.68 C18.19 38.35, 13.39 34.03, 0 22 M0 22 C8.95 13.44, 17.91 4.87, 23 0 M0 22 C4.85 17.36, 9.71 12.71, 23 0" stroke="transparent" stroke-width="1" fill="none"></path></g><g stroke-linecap="round" transform="translate(376.0184618896501 161.0211421552849) rotate(0 63.49888096911718 21.337680649541312)"><path d="M0 0 L127 0 L127 42.68 L0 42.68" stroke="none" stroke-width="0" fill="#228be6"></path><path d="M0 0 C50.24 0, 100.48 0, 127 0 M0 0 C27.69 0, 55.38 0, 127 0 M127 0 C127 12.86, 127 25.71, 127 42.68 M127 0 C127 13.66, 127 27.31, 127 42.68 M127 42.68 C92.97 42.68, 58.95 42.68, 0 42.68 M127 42.68 C95.16 42.68, 63.33 42.68, 0 42.68 M0 42.68 C0 29.19, 0 15.71, 0 0 M0 42.68 C0 28.81, 0 14.94, 0 0" stroke="transparent" stroke-width="1" fill="none"></path></g><g transform="translate(406.1628506712673 170.85882280482622) rotate(0 33.3544921875 11.5)"><text x="33.3544921875" y="18.400390625" font-family="Helvetica, Segoe UI Emoji" font-size="20px" fill="#ffffff" text-anchor="middle" style="white-space: pre;" direction="ltr" dominant-baseline="alphabetic">counter</text></g><g transform="translate(380.9558026295765 140.6211425428686) rotate(0 17.34375 9.199999999999989)"><text x="0" y="14.720312499999999" font-family="Helvetica, Segoe UI Emoji" font-size="16px" fill="#228be6" text-anchor="start" style="white-space: pre;" direction="ltr" dominant-baseline="alphabetic">state</text></g></svg>