<svg version="1.1" xmlns="http://www.w3.org/2000/svg" viewBox="0 0 448.5582918528328 358.29247723957724" width="448.5582918528328" height="358.29247723957724">
  <!-- svg-source:excalidraw -->
  
  <defs>
    <style class="style-fonts">
      @font-face {
        font-family: "Virgil";
        src: url("https://excalidraw.com/Virgil.woff2");
      }
      @font-face {
        font-family: "Cascadia";
        src: url("https://excalidraw.com/Cascadia.woff2");
      }
      @font-face {
        font-family: "Assistant";
        src: url("https://excalidraw.com/Assistant-Regular.woff2");
      }
    </style>
    
  </defs>
  <rect x="0" y="0" width="448.5582918528328" height="358.29247723957724" fill="#161923"></rect><g stroke-linecap="round" transform="translate(204.58629551498439 217.396501768525) rotate(0 65.447987735526 65.447987735526)"><path d="M130.9 65.45 C130.9 68.08, 130.74 70.73, 130.42 73.34 C130.1 75.95, 129.62 78.56, 128.99 81.11 C128.36 83.66, 127.58 86.2, 126.64 88.66 C125.71 91.11, 124.62 93.53, 123.4 95.86 C122.18 98.19, 120.8 100.46, 119.31 102.63 C117.82 104.79, 116.18 106.88, 114.44 108.85 C112.69 110.82, 110.82 112.69, 108.85 114.44 C106.88 116.18, 104.79 117.82, 102.63 119.31 C100.46 120.8, 98.19 122.18, 95.86 123.4 C93.53 124.62, 91.11 125.71, 88.66 126.64 C86.2 127.58, 83.66 128.36, 81.11 128.99 C78.56 129.62, 75.95 130.1, 73.34 130.42 C70.73 130.74, 68.08 130.9, 65.45 130.9 C62.82 130.9, 60.17 130.74, 57.56 130.42 C54.95 130.1, 52.34 129.62, 49.79 128.99 C47.23 128.36, 44.7 127.58, 42.24 126.64 C39.78 125.71, 37.36 124.62, 35.03 123.4 C32.7 122.18, 30.43 120.8, 28.27 119.31 C26.11 117.82, 24.02 116.18, 22.05 114.44 C20.08 112.69, 18.2 110.82, 16.46 108.85 C14.72 106.88, 13.08 104.79, 11.59 102.63 C10.09 100.46, 8.72 98.19, 7.5 95.86 C6.27 93.53, 5.19 91.11, 4.25 88.66 C3.32 86.2, 2.53 83.66, 1.9 81.11 C1.27 78.56, 0.79 75.95, 0.48 73.34 C0.16 70.73, 0 68.08, 0 65.45 C0 62.82, 0.16 60.17, 0.48 57.56 C0.79 54.95, 1.27 52.34, 1.9 49.79 C2.53 47.23, 3.32 44.7, 4.25 42.24 C5.19 39.78, 6.27 37.36, 7.5 35.03 C8.72 32.7, 10.09 30.43, 11.59 28.27 C13.08 26.11, 14.72 24.02, 16.46 22.05 C18.2 20.08, 20.08 18.2, 22.05 16.46 C24.02 14.72, 26.11 13.08, 28.27 11.59 C30.43 10.09, 32.7 8.72, 35.03 7.5 C37.36 6.27, 39.78 5.19, 42.24 4.25 C44.7 3.32, 47.23 2.53, 49.79 1.9 C52.34 1.27, 54.95 0.79, 57.56 0.48 C60.17 0.16, 62.82 0, 65.45 0 C68.08 0, 70.73 0.16, 73.34 0.48 C75.95 0.79, 78.56 1.27, 81.11 1.9 C83.66 2.53, 86.2 3.32, 88.66 4.25 C91.11 5.19, 93.53 6.27, 95.86 7.5 C98.19 8.72, 100.46 10.09, 102.63 11.59 C104.79 13.08, 106.88 14.72, 108.85 16.46 C110.82 18.2, 112.69 20.08, 114.44 22.05 C116.18 24.02, 117.82 26.11, 119.31 28.27 C120.8 30.43, 122.18 32.7, 123.4 35.03 C124.62 37.36, 125.71 39.78, 126.64 42.24 C127.58 44.7, 128.36 47.23, 128.99 49.79 C129.62 52.34, 130.1 54.95, 130.42 57.56 C130.74 60.17, 130.9 62.82, 130.9 65.45" stroke="none" stroke-width="0" fill="#7950f2"></path><path d="M130.9 65.45 C130.9 68.08, 130.74 70.73, 130.42 73.34 C130.1 75.95, 129.62 78.56, 128.99 81.11 C128.36 83.66, 127.58 86.2, 126.64 88.66 C125.71 91.11, 124.62 93.53, 123.4 95.86 C122.18 98.19, 120.8 100.46, 119.31 102.63 C117.82 104.79, 116.18 106.88, 114.44 108.85 C112.69 110.82, 110.82 112.69, 108.85 114.44 C106.88 116.18, 104.79 117.82, 102.63 119.31 C100.46 120.8, 98.19 122.18, 95.86 123.4 C93.53 124.62, 91.11 125.71, 88.66 126.64 C86.2 127.58, 83.66 128.36, 81.11 128.99 C78.56 129.62, 75.95 130.1, 73.34 130.42 C70.73 130.74, 68.08 130.9, 65.45 130.9 C62.82 130.9, 60.17 130.74, 57.56 130.42 C54.95 130.1, 52.34 129.62, 49.79 128.99 C47.23 128.36, 44.7 127.58, 42.24 126.64 C39.78 125.71, 37.36 124.62, 35.03 123.4 C32.7 122.18, 30.43 120.8, 28.27 119.31 C26.11 117.82, 24.02 116.18, 22.05 114.44 C20.08 112.69, 18.2 110.82, 16.46 108.85 C14.72 106.88, 13.08 104.79, 11.59 102.63 C10.09 100.46, 8.72 98.19, 7.5 95.86 C6.27 93.53, 5.19 91.11, 4.25 88.66 C3.32 86.2, 2.53 83.66, 1.9 81.11 C1.27 78.56, 0.79 75.95, 0.48 73.34 C0.16 70.73, 0 68.08, 0 65.45 C0 62.82, 0.16 60.17, 0.48 57.56 C0.79 54.95, 1.27 52.34, 1.9 49.79 C2.53 47.23, 3.32 44.7, 4.25 42.24 C5.19 39.78, 6.27 37.36, 7.5 35.03 C8.72 32.7, 10.09 30.43, 11.59 28.27 C13.08 26.11, 14.72 24.02, 16.46 22.05 C18.2 20.08, 20.08 18.2, 22.05 16.46 C24.02 14.72, 26.11 13.08, 28.27 11.59 C30.43 10.09, 32.7 8.72, 35.03 7.5 C37.36 6.27, 39.78 5.19, 42.24 4.25 C44.7 3.32, 47.23 2.53, 49.79 1.9 C52.34 1.27, 54.95 0.79, 57.56 0.48 C60.17 0.16, 62.82 0, 65.45 0 C68.08 0, 70.73 0.16, 73.34 0.48 C75.95 0.79, 78.56 1.27, 81.11 1.9 C83.66 2.53, 86.2 3.32, 88.66 4.25 C91.11 5.19, 93.53 6.27, 95.86 7.5 C98.19 8.72, 100.46 10.09, 102.63 11.59 C104.79 13.08, 106.88 14.72, 108.85 16.46 C110.82 18.2, 112.69 20.08, 114.44 22.05 C116.18 24.02, 117.82 26.11, 119.31 28.27 C120.8 30.43, 122.18 32.7, 123.4 35.03 C124.62 37.36, 125.71 39.78, 126.64 42.24 C127.58 44.7, 128.36 47.23, 128.99 49.79 C129.62 52.34, 130.1 54.95, 130.42 57.56 C130.74 60.17, 130.9 62.82, 130.9 65.45" stroke="transparent" stroke-width="1" fill="none"></path></g><g transform="translate(218.89658782995434 271.34449024564674) rotate(0 51.1376953125 11.5)"><text x="51.1376953125" y="18.400390625" font-family="Helvetica, Segoe UI Emoji" font-size="20px" fill="#ffffff" text-anchor="middle" style="white-space: pre;" direction="ltr" dominant-baseline="alphabetic">interactions</text></g><g stroke-opacity="0.2" fill-opacity="0.2" stroke-linecap="round" transform="translate(10.000000000000227 107.9856679999998) rotate(0 65.447987735526 65.447987735526)"><path d="M16.36 22.17 C16.36 22.17, 16.36 22.17, 16.36 22.17 M16.36 22.17 C16.36 22.17, 16.36 22.17, 16.36 22.17 M4.94 41.4 C13.87 31.13, 22.8 20.86, 31.84 10.45 M4.94 41.4 C14.12 30.83, 23.3 20.27, 31.84 10.45 M2.71 50.06 C16.44 34.26, 30.18 18.46, 42.73 4.02 M2.71 50.06 C16.11 34.65, 29.5 19.24, 42.73 4.02 M1.14 57.96 C11.36 46.21, 21.57 34.46, 49.69 2.12 M1.14 57.96 C19.18 37.21, 37.23 16.45, 49.69 2.12 M0.88 64.36 C17.89 44.79, 34.9 25.22, 55.99 0.97 M0.88 64.36 C20.16 42.18, 39.44 20, 55.99 0.97 M1.27 70.01 C25.11 42.58, 48.95 15.16, 61.63 0.57 M1.27 70.01 C18.93 49.69, 36.59 29.38, 61.63 0.57 M1.01 76.4 C18.77 55.97, 36.54 35.53, 67.27 0.18 M1.01 76.4 C23.47 50.56, 45.93 24.72, 67.27 0.18 M2.06 81.29 C25.08 54.81, 48.11 28.32, 72.26 0.54 M2.06 81.29 C18.57 62.3, 35.08 43.31, 72.26 0.54 M3.77 85.43 C21.04 65.56, 38.31 45.69, 77.25 0.9 M3.77 85.43 C27.61 57.99, 51.46 30.56, 77.25 0.9 M4.82 90.31 C25.5 66.53, 46.17 42.74, 81.58 2.01 M4.82 90.31 C23.12 69.26, 41.42 48.2, 81.58 2.01 M7.18 93.69 C37.92 58.33, 68.66 22.97, 85.91 3.13 M7.18 93.69 C29.77 67.71, 52.36 41.72, 85.91 3.13 M8.89 97.83 C40.86 61.05, 72.83 24.26, 89.58 5 M8.89 97.83 C37.07 65.41, 65.25 32.99, 89.58 5 M11.25 101.21 C42.62 65.12, 73.99 29.03, 93.26 6.87 M11.25 101.21 C32.93 76.26, 54.62 51.32, 93.26 6.87 M13.61 104.58 C38.83 75.57, 64.05 46.56, 96.93 8.74 M13.61 104.58 C40.45 73.71, 67.29 42.84, 96.93 8.74 M15.98 107.96 C35.15 85.91, 54.32 63.85, 100.61 10.61 M15.98 107.96 C37.39 83.33, 58.8 58.7, 100.61 10.61 M18.34 111.34 C44.13 81.67, 69.93 51.99, 104.28 12.48 M18.34 111.34 C45.8 79.75, 73.26 48.16, 104.28 12.48 M21.36 113.97 C38.97 93.7, 56.59 73.44, 107.3 15.1 M21.36 113.97 C47.7 83.67, 74.04 53.37, 107.3 15.1 M24.38 116.59 C51.64 85.23, 78.9 53.86, 110.32 17.72 M24.38 116.59 C42.57 95.66, 60.76 74.73, 110.32 17.72 M27.39 119.21 C58.98 82.88, 90.56 46.55, 113.34 20.35 M27.39 119.21 C47.72 95.83, 68.05 72.44, 113.34 20.35 M31.07 121.08 C64.9 82.17, 98.73 43.25, 115.7 23.73 M31.07 121.08 C54.49 94.15, 77.9 67.21, 115.7 23.73 M34.74 122.95 C53.99 100.82, 73.23 78.68, 118.06 27.11 M34.74 122.95 C60.79 92.99, 86.84 63.02, 118.06 27.11 M38.42 124.82 C55.69 104.96, 72.95 85.1, 120.43 30.48 M38.42 124.82 C63.05 96.49, 87.69 68.15, 120.43 30.48 M42.09 126.69 C64.65 100.75, 87.2 74.8, 122.79 33.86 M42.09 126.69 C71.31 93.09, 100.52 59.48, 122.79 33.86 M45.77 128.56 C71.96 98.44, 98.15 68.31, 125.15 37.24 M45.77 128.56 C67.71 103.32, 89.66 78.07, 125.15 37.24 M50.1 129.68 C70.39 106.34, 90.67 83, 126.86 41.38 M50.1 129.68 C70.81 105.85, 91.52 82.03, 126.86 41.38 M55.09 130.04 C80.95 100.29, 106.8 70.54, 127.91 46.26 M55.09 130.04 C77.4 104.37, 99.7 78.71, 127.91 46.26 M59.42 131.15 C80.75 106.62, 102.07 82.08, 129.62 50.4 M59.42 131.15 C78.99 108.63, 98.57 86.11, 129.62 50.4 M64.41 131.51 C77.7 116.22, 90.99 100.92, 130.67 55.29 M64.41 131.51 C84.24 108.69, 104.08 85.87, 130.67 55.29 M70.05 131.12 C93.46 104.19, 116.86 77.26, 131.06 60.93 M70.05 131.12 C87.74 110.77, 105.42 90.42, 131.06 60.93 M75.69 130.72 C97.64 105.47, 119.59 80.22, 130.8 67.33 M75.69 130.72 C90.72 113.43, 105.75 96.14, 130.8 67.33 M82.65 128.82 C94.94 114.68, 107.23 100.54, 130.54 73.73 M82.65 128.82 C99.96 108.91, 117.27 88.99, 130.54 73.73 M89.6 126.91 C105.23 108.94, 120.85 90.97, 128.97 81.63 M89.6 126.91 C99.49 115.54, 109.38 104.16, 128.97 81.63 M99.18 121.99 C108.18 111.64, 117.17 101.3, 125.42 91.8 M99.18 121.99 C104.69 115.66, 110.19 109.32, 125.42 91.8" stroke="#15aabf" stroke-width="0.5" fill="none"></path><path d="M130.9 65.45 C130.9 68.08, 130.74 70.73, 130.42 73.34 C130.1 75.95, 129.62 78.56, 128.99 81.11 C128.36 83.66, 127.58 86.2, 126.64 88.66 C125.71 91.11, 124.62 93.53, 123.4 95.86 C122.18 98.19, 120.8 100.46, 119.31 102.63 C117.82 104.79, 116.18 106.88, 114.44 108.85 C112.69 110.82, 110.82 112.69, 108.85 114.44 C106.88 116.18, 104.79 117.82, 102.63 119.31 C100.46 120.8, 98.19 122.18, 95.86 123.4 C93.53 124.62, 91.11 125.71, 88.66 126.64 C86.2 127.58, 83.66 128.36, 81.11 128.99 C78.56 129.62, 75.95 130.1, 73.34 130.42 C70.73 130.74, 68.08 130.9, 65.45 130.9 C62.82 130.9, 60.17 130.74, 57.56 130.42 C54.95 130.1, 52.34 129.62, 49.79 128.99 C47.23 128.36, 44.7 127.58, 42.24 126.64 C39.78 125.71, 37.36 124.62, 35.03 123.4 C32.7 122.18, 30.43 120.8, 28.27 119.31 C26.11 117.82, 24.02 116.18, 22.05 114.44 C20.08 112.69, 18.2 110.82, 16.46 108.85 C14.72 106.88, 13.08 104.79, 11.59 102.63 C10.09 100.46, 8.72 98.19, 7.5 95.86 C6.27 93.53, 5.19 91.11, 4.25 88.66 C3.32 86.2, 2.53 83.66, 1.9 81.11 C1.27 78.56, 0.79 75.95, 0.48 73.34 C0.16 70.73, 0 68.08, 0 65.45 C0 62.82, 0.16 60.17, 0.48 57.56 C0.79 54.95, 1.27 52.34, 1.9 49.79 C2.53 47.23, 3.32 44.7, 4.25 42.24 C5.19 39.78, 6.27 37.36, 7.5 35.03 C8.72 32.7, 10.09 30.43, 11.59 28.27 C13.08 26.11, 14.72 24.02, 16.46 22.05 C18.2 20.08, 20.08 18.2, 22.05 16.46 C24.02 14.72, 26.11 13.08, 28.27 11.59 C30.43 10.09, 32.7 8.72, 35.03 7.5 C37.36 6.27, 39.78 5.19, 42.24 4.25 C44.7 3.32, 47.23 2.53, 49.79 1.9 C52.34 1.27, 54.95 0.79, 57.56 0.48 C60.17 0.16, 62.82 0, 65.45 0 C68.08 0, 70.73 0.16, 73.34 0.48 C75.95 0.79, 78.56 1.27, 81.11 1.9 C83.66 2.53, 86.2 3.32, 88.66 4.25 C91.11 5.19, 93.53 6.27, 95.86 7.5 C98.19 8.72, 100.46 10.09, 102.63 11.59 C104.79 13.08, 106.88 14.72, 108.85 16.46 C110.82 18.2, 112.69 20.08, 114.44 22.05 C116.18 24.02, 117.82 26.11, 119.31 28.27 C120.8 30.43, 122.18 32.7, 123.4 35.03 C124.62 37.36, 125.71 39.78, 126.64 42.24 C127.58 44.7, 128.36 47.23, 128.99 49.79 C129.62 52.34, 130.1 54.95, 130.42 57.56 C130.74 60.17, 130.9 62.82, 130.9 65.45" stroke="transparent" stroke-width="1" fill="none"></path></g><g stroke-opacity="0.2" fill-opacity="0.2" transform="translate(41.541737627470184 161.9336564771213) rotate(0 33.90625 11.5)"><text x="33.90625" y="18.400390625" font-family="Helvetica, Segoe UI Emoji" font-size="20px" fill="#ffffff" text-anchor="middle" style="white-space: pre;" direction="ltr" dominant-baseline="alphabetic">widgets</text></g><g stroke-linecap="round" transform="translate(204.58629600000063 10) rotate(0 65.447987735526 65.447987735526)"><path d="M130.9 65.45 C130.9 68.08, 130.74 70.73, 130.42 73.34 C130.1 75.95, 129.62 78.56, 128.99 81.11 C128.36 83.66, 127.58 86.2, 126.64 88.66 C125.71 91.11, 124.62 93.53, 123.4 95.86 C122.18 98.19, 120.8 100.46, 119.31 102.63 C117.82 104.79, 116.18 106.88, 114.44 108.85 C112.69 110.82, 110.82 112.69, 108.85 114.44 C106.88 116.18, 104.79 117.82, 102.63 119.31 C100.46 120.8, 98.19 122.18, 95.86 123.4 C93.53 124.62, 91.11 125.71, 88.66 126.64 C86.2 127.58, 83.66 128.36, 81.11 128.99 C78.56 129.62, 75.95 130.1, 73.34 130.42 C70.73 130.74, 68.08 130.9, 65.45 130.9 C62.82 130.9, 60.17 130.74, 57.56 130.42 C54.95 130.1, 52.34 129.62, 49.79 128.99 C47.23 128.36, 44.7 127.58, 42.24 126.64 C39.78 125.71, 37.36 124.62, 35.03 123.4 C32.7 122.18, 30.43 120.8, 28.27 119.31 C26.11 117.82, 24.02 116.18, 22.05 114.44 C20.08 112.69, 18.2 110.82, 16.46 108.85 C14.72 106.88, 13.08 104.79, 11.59 102.63 C10.09 100.46, 8.72 98.19, 7.5 95.86 C6.27 93.53, 5.19 91.11, 4.25 88.66 C3.32 86.2, 2.53 83.66, 1.9 81.11 C1.27 78.56, 0.79 75.95, 0.48 73.34 C0.16 70.73, 0 68.08, 0 65.45 C0 62.82, 0.16 60.17, 0.48 57.56 C0.79 54.95, 1.27 52.34, 1.9 49.79 C2.53 47.23, 3.32 44.7, 4.25 42.24 C5.19 39.78, 6.27 37.36, 7.5 35.03 C8.72 32.7, 10.09 30.43, 11.59 28.27 C13.08 26.11, 14.72 24.02, 16.46 22.05 C18.2 20.08, 20.08 18.2, 22.05 16.46 C24.02 14.72, 26.11 13.08, 28.27 11.59 C30.43 10.09, 32.7 8.72, 35.03 7.5 C37.36 6.27, 39.78 5.19, 42.24 4.25 C44.7 3.32, 47.23 2.53, 49.79 1.9 C52.34 1.27, 54.95 0.79, 57.56 0.48 C60.17 0.16, 62.82 0, 65.45 0 C68.08 0, 70.73 0.16, 73.34 0.48 C75.95 0.79, 78.56 1.27, 81.11 1.9 C83.66 2.53, 86.2 3.32, 88.66 4.25 C91.11 5.19, 93.53 6.27, 95.86 7.5 C98.19 8.72, 100.46 10.09, 102.63 11.59 C104.79 13.08, 106.88 14.72, 108.85 16.46 C110.82 18.2, 112.69 20.08, 114.44 22.05 C116.18 24.02, 117.82 26.11, 119.31 28.27 C120.8 30.43, 122.18 32.7, 123.4 35.03 C124.62 37.36, 125.71 39.78, 126.64 42.24 C127.58 44.7, 128.36 47.23, 128.99 49.79 C129.62 52.34, 130.1 54.95, 130.42 57.56 C130.74 60.17, 130.9 62.82, 130.9 65.45" stroke="none" stroke-width="0" fill="#228be6"></path><path d="M130.9 65.45 C130.9 68.08, 130.74 70.73, 130.42 73.34 C130.1 75.95, 129.62 78.56, 128.99 81.11 C128.36 83.66, 127.58 86.2, 126.64 88.66 C125.71 91.11, 124.62 93.53, 123.4 95.86 C122.18 98.19, 120.8 100.46, 119.31 102.63 C117.82 104.79, 116.18 106.88, 114.44 108.85 C112.69 110.82, 110.82 112.69, 108.85 114.44 C106.88 116.18, 104.79 117.82, 102.63 119.31 C100.46 120.8, 98.19 122.18, 95.86 123.4 C93.53 124.62, 91.11 125.71, 88.66 126.64 C86.2 127.58, 83.66 128.36, 81.11 128.99 C78.56 129.62, 75.95 130.1, 73.34 130.42 C70.73 130.74, 68.08 130.9, 65.45 130.9 C62.82 130.9, 60.17 130.74, 57.56 130.42 C54.95 130.1, 52.34 129.62, 49.79 128.99 C47.23 128.36, 44.7 127.58, 42.24 126.64 C39.78 125.71, 37.36 124.62, 35.03 123.4 C32.7 122.18, 30.43 120.8, 28.27 119.31 C26.11 117.82, 24.02 116.18, 22.05 114.44 C20.08 112.69, 18.2 110.82, 16.46 108.85 C14.72 106.88, 13.08 104.79, 11.59 102.63 C10.09 100.46, 8.72 98.19, 7.5 95.86 C6.27 93.53, 5.19 91.11, 4.25 88.66 C3.32 86.2, 2.53 83.66, 1.9 81.11 C1.27 78.56, 0.79 75.95, 0.48 73.34 C0.16 70.73, 0 68.08, 0 65.45 C0 62.82, 0.16 60.17, 0.48 57.56 C0.79 54.95, 1.27 52.34, 1.9 49.79 C2.53 47.23, 3.32 44.7, 4.25 42.24 C5.19 39.78, 6.27 37.36, 7.5 35.03 C8.72 32.7, 10.09 30.43, 11.59 28.27 C13.08 26.11, 14.72 24.02, 16.46 22.05 C18.2 20.08, 20.08 18.2, 22.05 16.46 C24.02 14.72, 26.11 13.08, 28.27 11.59 C30.43 10.09, 32.7 8.72, 35.03 7.5 C37.36 6.27, 39.78 5.19, 42.24 4.25 C44.7 3.32, 47.23 2.53, 49.79 1.9 C52.34 1.27, 54.95 0.79, 57.56 0.48 C60.17 0.16, 62.82 0, 65.45 0 C68.08 0, 70.73 0.16, 73.34 0.48 C75.95 0.79, 78.56 1.27, 81.11 1.9 C83.66 2.53, 86.2 3.32, 88.66 4.25 C91.11 5.19, 93.53 6.27, 95.86 7.5 C98.19 8.72, 100.46 10.09, 102.63 11.59 C104.79 13.08, 106.88 14.72, 108.85 16.46 C110.82 18.2, 112.69 20.08, 114.44 22.05 C116.18 24.02, 117.82 26.11, 119.31 28.27 C120.8 30.43, 122.18 32.7, 123.4 35.03 C124.62 37.36, 125.71 39.78, 126.64 42.24 C127.58 44.7, 128.36 47.23, 128.99 49.79 C129.62 52.34, 130.1 54.95, 130.42 57.56 C130.74 60.17, 130.9 62.82, 130.9 65.45" stroke="transparent" stroke-width="1" fill="none"></path></g><g transform="translate(248.3545961274706 63.947988477121726) rotate(0 21.6796875 11.5)"><text x="21.6796875" y="18.400390625" font-family="Helvetica, Segoe UI Emoji" font-size="20px" fill="#ffffff" text-anchor="middle" style="white-space: pre;" direction="ltr" dominant-baseline="alphabetic">state</text></g><g stroke-linecap="round"><g stroke-opacity="0.2" fill-opacity="0.2" transform="translate(76.71624229378017 248.15184204462776) rotate(0 58.03214900399462 20.321760625028446)"><path d="M1.12 1.14 C6.14 8.23, 10.44 35.11, 29.44 41.63 C48.44 48.14, 100.75 40.53, 115.12 40.23" stroke="#15aabf" stroke-width="2.5" fill="none" stroke-dasharray="1.5 8"></path></g><g stroke-opacity="0.2" fill-opacity="0.2" transform="translate(76.71624229378017 248.15184204462776) rotate(0 58.03214900399462 20.321760625028446)"><path d="M92.37 50.59 C99.82 47.52, 105.02 43.83, 115.12 40.23" stroke="#15aabf" stroke-width="2.5" fill="none" stroke-dasharray="1.5 6"></path></g><g stroke-opacity="0.2" fill-opacity="0.2" transform="translate(76.71624229378017 248.15184204462776) rotate(0 58.03214900399462 20.321760625028446)"><path d="M91.03 33.54 C98.68 34.55, 104.2 34.96, 115.12 40.23" stroke="#15aabf" stroke-width="2.5" fill="none" stroke-dasharray="1.5 6"></path></g></g><mask></mask><g stroke-opacity="0.2" fill-opacity="0.2" transform="translate(68.62058502686955 299.89424881668174) rotate(0 36.1376953125 11.5)"><text x="36.1376953125" y="18.400390625" font-family="Helvetica, Segoe UI Emoji" font-size="20px" fill="#15aabf" text-anchor="middle" style="white-space: pre;" direction="ltr" dominant-baseline="alphabetic">produce</text></g><g stroke-linecap="round"><g transform="translate(336.9668032797565 240.46444637728882) rotate(0 7.776984215072957 -59.83714986025984)"><path d="M0 0 C3.71 -9.38, 23.36 -36.35, 22.24 -56.3 C21.13 -76.24, -1.87 -109.11, -6.69 -119.67 M0 0 C3.71 -9.38, 23.36 -36.35, 22.24 -56.3 C21.13 -76.24, -1.87 -109.11, -6.69 -119.67" stroke="#7950f2" stroke-width="2" fill="none"></path></g><g transform="translate(336.9668032797565 240.46444637728882) rotate(0 7.776984215072957 -59.83714986025984)"><path d="M-6.69 -119.67 L5.48 -110.91 L-5.58 -104.72 L-6.69 -119.67" stroke="none" stroke-width="0" fill="#7950f2" fill-rule="evenodd"></path><path d="M-6.69 -119.67 C-2.54 -116.69, 1.61 -113.7, 5.48 -110.91 M-6.69 -119.67 C-4.09 -117.8, -1.49 -115.93, 5.48 -110.91 M5.48 -110.91 C2.61 -109.3, -0.27 -107.69, -5.58 -104.72 M5.48 -110.91 C1.8 -108.85, -1.88 -106.79, -5.58 -104.72 M-5.58 -104.72 C-5.81 -107.78, -6.03 -110.84, -6.69 -119.67 M-5.58 -104.72 C-5.83 -108.06, -6.07 -111.41, -6.69 -119.67 M-6.69 -119.67 C-6.69 -119.67, -6.69 -119.67, -6.69 -119.67 M-6.69 -119.67 C-6.69 -119.67, -6.69 -119.67, -6.69 -119.67" stroke="#7950f2" stroke-width="2" fill="none"></path></g></g><mask></mask><g transform="translate(372.9430574778328 173.4336551729616) rotate(0 32.8076171875 11.5)"><text x="32.8076171875" y="18.400390625" font-family="Helvetica, Segoe UI Emoji" font-size="20px" fill="#7950f2" text-anchor="middle" style="white-space: pre;" direction="ltr" dominant-baseline="alphabetic">change</text></g><g stroke-linecap="round"><g transform="translate(204.35708533140746 37.981417043250985) rotate(0 -53.325606853425256 31.473463758956086)"><path d="M0 0 C-10.98 0.5, -48.13 -7.47, -65.91 3.02 C-83.68 13.51, -99.86 52.96, -106.65 62.95 M0 0 C-10.98 0.5, -48.13 -7.47, -65.91 3.02 C-83.68 13.51, -99.86 52.96, -106.65 62.95" stroke="#228be6" stroke-width="2" fill="none"></path></g><g transform="translate(204.35708533140746 37.981417043250985) rotate(0 -53.325606853425256 31.473463758956086)"><path d="M-106.65 62.95 L-105.67 47.98 L-94.55 54.08 L-106.65 62.95" stroke="none" stroke-width="0" fill="#228be6" fill-rule="evenodd"></path><path d="M-106.65 62.95 C-106.43 59.6, -106.21 56.26, -105.67 47.98 M-106.65 62.95 C-106.32 57.85, -105.98 52.76, -105.67 47.98 M-105.67 47.98 C-102.21 49.88, -98.76 51.77, -94.55 54.08 M-105.67 47.98 C-101.74 50.14, -97.81 52.29, -94.55 54.08 M-94.55 54.08 C-99.01 57.35, -103.47 60.61, -106.65 62.95 M-94.55 54.08 C-97.52 56.26, -100.5 58.44, -106.65 62.95 M-106.65 62.95 C-106.65 62.95, -106.65 62.95, -106.65 62.95 M-106.65 62.95 C-106.65 62.95, -106.65 62.95, -106.65 62.95" stroke="#228be6" stroke-width="2" fill="none"></path></g></g><mask></mask><g transform="translate(42.253351763375804 35.55162908862076) rotate(0 34.462890625 11.5)"><text x="34.462890625" y="18.400390625" font-family="Helvetica, Segoe UI Emoji" font-size="20px" fill="#228be6" text-anchor="middle" style="white-space: pre;" direction="ltr" dominant-baseline="alphabetic">dictates</text></g></svg>