<svg version="1.1" xmlns="http://www.w3.org/2000/svg" viewBox="0 0 485.91577273543794 358.2924772764377" width="485.91577273543794" height="358.2924772764377">
  <!-- svg-source:excalidraw -->
  
  <defs>
    <style class="style-fonts">
      @font-face {
        font-family: "Virgil";
        src: url("https://excalidraw.com/Virgil.woff2");
      }
      @font-face {
        font-family: "Cascadia";
        src: url("https://excalidraw.com/Cascadia.woff2");
      }
      @font-face {
        font-family: "Assistant";
        src: url("https://excalidraw.com/Assistant-Regular.woff2");
      }
    </style>
    
  </defs>
  <rect x="0" y="0" width="485.91577273543794" height="358.2924772764377" fill="#161923"></rect><g stroke-linecap="round" transform="translate(209.8069837162309 217.39650180538547) rotate(0 65.447987735526 65.447987735526)"><path d="M130.9 65.45 C130.9 68.08, 130.74 70.73, 130.42 73.34 C130.1 75.95, 129.62 78.56, 128.99 81.11 C128.36 83.66, 127.58 86.2, 126.64 88.66 C125.71 91.11, 124.62 93.53, 123.4 95.86 C122.18 98.19, 120.8 100.46, 119.31 102.63 C117.82 104.79, 116.18 106.88, 114.44 108.85 C112.69 110.82, 110.82 112.69, 108.85 114.44 C106.88 116.18, 104.79 117.82, 102.63 119.31 C100.46 120.8, 98.19 122.18, 95.86 123.4 C93.53 124.62, 91.11 125.71, 88.66 126.64 C86.2 127.58, 83.66 128.36, 81.11 128.99 C78.56 129.62, 75.95 130.1, 73.34 130.42 C70.73 130.74, 68.08 130.9, 65.45 130.9 C62.82 130.9, 60.17 130.74, 57.56 130.42 C54.95 130.1, 52.34 129.62, 49.79 128.99 C47.23 128.36, 44.7 127.58, 42.24 126.64 C39.78 125.71, 37.36 124.62, 35.03 123.4 C32.7 122.18, 30.43 120.8, 28.27 119.31 C26.11 117.82, 24.02 116.18, 22.05 114.44 C20.08 112.69, 18.2 110.82, 16.46 108.85 C14.72 106.88, 13.08 104.79, 11.59 102.63 C10.09 100.46, 8.72 98.19, 7.5 95.86 C6.27 93.53, 5.19 91.11, 4.25 88.66 C3.32 86.2, 2.53 83.66, 1.9 81.11 C1.27 78.56, 0.79 75.95, 0.48 73.34 C0.16 70.73, 0 68.08, 0 65.45 C0 62.82, 0.16 60.17, 0.48 57.56 C0.79 54.95, 1.27 52.34, 1.9 49.79 C2.53 47.23, 3.32 44.7, 4.25 42.24 C5.19 39.78, 6.27 37.36, 7.5 35.03 C8.72 32.7, 10.09 30.43, 11.59 28.27 C13.08 26.11, 14.72 24.02, 16.46 22.05 C18.2 20.08, 20.08 18.2, 22.05 16.46 C24.02 14.72, 26.11 13.08, 28.27 11.59 C30.43 10.09, 32.7 8.72, 35.03 7.5 C37.36 6.27, 39.78 5.19, 42.24 4.25 C44.7 3.32, 47.23 2.53, 49.79 1.9 C52.34 1.27, 54.95 0.79, 57.56 0.48 C60.17 0.16, 62.82 0, 65.45 0 C68.08 0, 70.73 0.16, 73.34 0.48 C75.95 0.79, 78.56 1.27, 81.11 1.9 C83.66 2.53, 86.2 3.32, 88.66 4.25 C91.11 5.19, 93.53 6.27, 95.86 7.5 C98.19 8.72, 100.46 10.09, 102.63 11.59 C104.79 13.08, 106.88 14.72, 108.85 16.46 C110.82 18.2, 112.69 20.08, 114.44 22.05 C116.18 24.02, 117.82 26.11, 119.31 28.27 C120.8 30.43, 122.18 32.7, 123.4 35.03 C124.62 37.36, 125.71 39.78, 126.64 42.24 C127.58 44.7, 128.36 47.23, 128.99 49.79 C129.62 52.34, 130.1 54.95, 130.42 57.56 C130.74 60.17, 130.9 62.82, 130.9 65.45" stroke="none" stroke-width="0" fill="#7950f2"></path><path d="M130.9 65.45 C130.9 68.08, 130.74 70.73, 130.42 73.34 C130.1 75.95, 129.62 78.56, 128.99 81.11 C128.36 83.66, 127.58 86.2, 126.64 88.66 C125.71 91.11, 124.62 93.53, 123.4 95.86 C122.18 98.19, 120.8 100.46, 119.31 102.63 C117.82 104.79, 116.18 106.88, 114.44 108.85 C112.69 110.82, 110.82 112.69, 108.85 114.44 C106.88 116.18, 104.79 117.82, 102.63 119.31 C100.46 120.8, 98.19 122.18, 95.86 123.4 C93.53 124.62, 91.11 125.71, 88.66 126.64 C86.2 127.58, 83.66 128.36, 81.11 128.99 C78.56 129.62, 75.95 130.1, 73.34 130.42 C70.73 130.74, 68.08 130.9, 65.45 130.9 C62.82 130.9, 60.17 130.74, 57.56 130.42 C54.95 130.1, 52.34 129.62, 49.79 128.99 C47.23 128.36, 44.7 127.58, 42.24 126.64 C39.78 125.71, 37.36 124.62, 35.03 123.4 C32.7 122.18, 30.43 120.8, 28.27 119.31 C26.11 117.82, 24.02 116.18, 22.05 114.44 C20.08 112.69, 18.2 110.82, 16.46 108.85 C14.72 106.88, 13.08 104.79, 11.59 102.63 C10.09 100.46, 8.72 98.19, 7.5 95.86 C6.27 93.53, 5.19 91.11, 4.25 88.66 C3.32 86.2, 2.53 83.66, 1.9 81.11 C1.27 78.56, 0.79 75.95, 0.48 73.34 C0.16 70.73, 0 68.08, 0 65.45 C0 62.82, 0.16 60.17, 0.48 57.56 C0.79 54.95, 1.27 52.34, 1.9 49.79 C2.53 47.23, 3.32 44.7, 4.25 42.24 C5.19 39.78, 6.27 37.36, 7.5 35.03 C8.72 32.7, 10.09 30.43, 11.59 28.27 C13.08 26.11, 14.72 24.02, 16.46 22.05 C18.2 20.08, 20.08 18.2, 22.05 16.46 C24.02 14.72, 26.11 13.08, 28.27 11.59 C30.43 10.09, 32.7 8.72, 35.03 7.5 C37.36 6.27, 39.78 5.19, 42.24 4.25 C44.7 3.32, 47.23 2.53, 49.79 1.9 C52.34 1.27, 54.95 0.79, 57.56 0.48 C60.17 0.16, 62.82 0, 65.45 0 C68.08 0, 70.73 0.16, 73.34 0.48 C75.95 0.79, 78.56 1.27, 81.11 1.9 C83.66 2.53, 86.2 3.32, 88.66 4.25 C91.11 5.19, 93.53 6.27, 95.86 7.5 C98.19 8.72, 100.46 10.09, 102.63 11.59 C104.79 13.08, 106.88 14.72, 108.85 16.46 C110.82 18.2, 112.69 20.08, 114.44 22.05 C116.18 24.02, 117.82 26.11, 119.31 28.27 C120.8 30.43, 122.18 32.7, 123.4 35.03 C124.62 37.36, 125.71 39.78, 126.64 42.24 C127.58 44.7, 128.36 47.23, 128.99 49.79 C129.62 52.34, 130.1 54.95, 130.42 57.56 C130.74 60.17, 130.9 62.82, 130.9 65.45" stroke="transparent" stroke-width="1" fill="none"></path></g><g transform="translate(229.67879946870084 271.3444902825072) rotate(0 45.576171875 11.5)"><text x="45.576171875" y="18.400390625" font-family="Helvetica, Segoe UI Emoji" font-size="20px" fill="#ffffff" text-anchor="middle" style="white-space: pre;" direction="ltr" dominant-baseline="alphabetic">messages</text></g><g stroke-opacity="0.2" fill-opacity="0.2" stroke-linecap="round" transform="translate(15.22068820124673 107.98566803686026) rotate(0 65.447987735526 65.447987735526)"><path d="M16.36 22.17 C16.36 22.17, 16.36 22.17, 16.36 22.17 M16.36 22.17 C16.36 22.17, 16.36 22.17, 16.36 22.17 M4.94 41.4 C14.01 30.96, 23.09 20.52, 31.84 10.45 M4.94 41.4 C13.39 31.68, 21.83 21.96, 31.84 10.45 M2.71 50.06 C13.51 37.64, 24.31 25.22, 42.73 4.02 M2.71 50.06 C13.42 37.74, 24.12 25.42, 42.73 4.02 M1.14 57.96 C10.87 46.77, 20.6 35.57, 49.69 2.12 M1.14 57.96 C14.83 42.22, 28.51 26.47, 49.69 2.12 M0.88 64.36 C14.38 48.83, 27.88 33.3, 55.99 0.97 M0.88 64.36 C22 40.07, 43.12 15.77, 55.99 0.97 M1.27 70.01 C17.38 51.47, 33.49 32.94, 61.63 0.57 M1.27 70.01 C18.62 50.05, 35.96 30.1, 61.63 0.57 M1.01 76.4 C14.4 61, 27.8 45.59, 67.27 0.18 M1.01 76.4 C19.24 55.44, 37.46 34.47, 67.27 0.18 M2.06 81.29 C29.05 50.25, 56.03 19.2, 72.26 0.54 M2.06 81.29 C20.79 59.74, 39.53 38.19, 72.26 0.54 M3.77 85.43 C23.62 62.59, 43.47 39.75, 77.25 0.9 M3.77 85.43 C25.68 60.22, 47.6 35.01, 77.25 0.9 M4.82 90.31 C32.71 58.22, 60.61 26.13, 81.58 2.01 M4.82 90.31 C35.09 55.49, 65.37 20.66, 81.58 2.01 M7.18 93.69 C34.01 62.82, 60.85 31.95, 85.91 3.13 M7.18 93.69 C26.51 71.46, 45.84 49.22, 85.91 3.13 M8.89 97.83 C39.29 62.85, 69.69 27.88, 89.58 5 M8.89 97.83 C31.61 71.69, 54.33 45.56, 89.58 5 M11.25 101.21 C33.24 75.9, 55.24 50.6, 93.26 6.87 M11.25 101.21 C39.73 68.45, 68.2 35.69, 93.26 6.87 M13.61 104.58 C43.59 70.1, 73.56 35.62, 96.93 8.74 M13.61 104.58 C45.05 68.42, 76.48 32.26, 96.93 8.74 M15.98 107.96 C38.72 81.79, 61.47 55.62, 100.61 10.61 M15.98 107.96 C38.92 81.57, 61.87 55.17, 100.61 10.61 M18.34 111.34 C36.41 90.55, 54.48 69.76, 104.28 12.48 M18.34 111.34 C49.98 74.95, 81.61 38.55, 104.28 12.48 M21.36 113.97 C49.01 82.15, 76.67 50.33, 107.3 15.1 M21.36 113.97 C49.07 82.09, 76.78 50.21, 107.3 15.1 M24.38 116.59 C57.78 78.16, 91.18 39.74, 110.32 17.72 M24.38 116.59 C56.87 79.21, 89.37 41.82, 110.32 17.72 M27.39 119.21 C59.09 82.75, 90.78 46.29, 113.34 20.35 M27.39 119.21 C48.37 95.09, 69.34 70.97, 113.34 20.35 M31.07 121.08 C57.96 90.15, 84.86 59.21, 115.7 23.73 M31.07 121.08 C62.28 85.18, 93.49 49.27, 115.7 23.73 M34.74 122.95 C60.9 92.87, 87.05 62.79, 118.06 27.11 M34.74 122.95 C52.75 102.25, 70.75 81.54, 118.06 27.11 M38.42 124.82 C69.82 88.7, 101.23 52.57, 120.43 30.48 M38.42 124.82 C66.23 92.83, 94.05 60.83, 120.43 30.48 M42.09 126.69 C60.14 105.93, 78.18 85.18, 122.79 33.86 M42.09 126.69 C62.78 102.89, 83.47 79.09, 122.79 33.86 M45.77 128.56 C72.13 98.24, 98.49 67.91, 125.15 37.24 M45.77 128.56 C71.63 98.81, 97.49 69.07, 125.15 37.24 M50.1 129.68 C75.21 100.79, 100.33 71.9, 126.86 41.38 M50.1 129.68 C67.01 110.23, 83.91 90.78, 126.86 41.38 M55.09 130.04 C75.15 106.96, 95.21 83.89, 127.91 46.26 M55.09 130.04 C69.84 113.07, 84.59 96.09, 127.91 46.26 M59.42 131.15 C74.59 113.7, 89.76 96.25, 129.62 50.4 M59.42 131.15 C73.49 114.97, 87.56 98.78, 129.62 50.4 M64.41 131.51 C83.35 109.71, 102.3 87.91, 130.67 55.29 M64.41 131.51 C83.04 110.08, 101.67 88.64, 130.67 55.29 M70.05 131.12 C84.97 113.95, 99.89 96.79, 131.06 60.93 M70.05 131.12 C90.01 108.15, 109.98 85.19, 131.06 60.93 M75.69 130.72 C97.68 105.43, 119.67 80.14, 130.8 67.33 M75.69 130.72 C92.81 111.03, 109.92 91.34, 130.8 67.33 M82.65 128.82 C98.41 110.69, 114.17 92.56, 130.54 73.73 M82.65 128.82 C100.29 108.53, 117.93 88.23, 130.54 73.73 M89.6 126.91 C97.96 117.3, 106.32 107.69, 128.97 81.63 M89.6 126.91 C100.52 114.36, 111.43 101.8, 128.97 81.63 M99.18 121.99 C108.33 111.46, 117.49 100.93, 125.42 91.8 M99.18 121.99 C107.82 112.06, 116.45 102.12, 125.42 91.8" stroke="#15aabf" stroke-width="0.5" fill="none"></path><path d="M130.9 65.45 C130.9 68.08, 130.74 70.73, 130.42 73.34 C130.1 75.95, 129.62 78.56, 128.99 81.11 C128.36 83.66, 127.58 86.2, 126.64 88.66 C125.71 91.11, 124.62 93.53, 123.4 95.86 C122.18 98.19, 120.8 100.46, 119.31 102.63 C117.82 104.79, 116.18 106.88, 114.44 108.85 C112.69 110.82, 110.82 112.69, 108.85 114.44 C106.88 116.18, 104.79 117.82, 102.63 119.31 C100.46 120.8, 98.19 122.18, 95.86 123.4 C93.53 124.62, 91.11 125.71, 88.66 126.64 C86.2 127.58, 83.66 128.36, 81.11 128.99 C78.56 129.62, 75.95 130.1, 73.34 130.42 C70.73 130.74, 68.08 130.9, 65.45 130.9 C62.82 130.9, 60.17 130.74, 57.56 130.42 C54.95 130.1, 52.34 129.62, 49.79 128.99 C47.23 128.36, 44.7 127.58, 42.24 126.64 C39.78 125.71, 37.36 124.62, 35.03 123.4 C32.7 122.18, 30.43 120.8, 28.27 119.31 C26.11 117.82, 24.02 116.18, 22.05 114.44 C20.08 112.69, 18.2 110.82, 16.46 108.85 C14.72 106.88, 13.08 104.79, 11.59 102.63 C10.09 100.46, 8.72 98.19, 7.5 95.86 C6.27 93.53, 5.19 91.11, 4.25 88.66 C3.32 86.2, 2.53 83.66, 1.9 81.11 C1.27 78.56, 0.79 75.95, 0.48 73.34 C0.16 70.73, 0 68.08, 0 65.45 C0 62.82, 0.16 60.17, 0.48 57.56 C0.79 54.95, 1.27 52.34, 1.9 49.79 C2.53 47.23, 3.32 44.7, 4.25 42.24 C5.19 39.78, 6.27 37.36, 7.5 35.03 C8.72 32.7, 10.09 30.43, 11.59 28.27 C13.08 26.11, 14.72 24.02, 16.46 22.05 C18.2 20.08, 20.08 18.2, 22.05 16.46 C24.02 14.72, 26.11 13.08, 28.27 11.59 C30.43 10.09, 32.7 8.72, 35.03 7.5 C37.36 6.27, 39.78 5.19, 42.24 4.25 C44.7 3.32, 47.23 2.53, 49.79 1.9 C52.34 1.27, 54.95 0.79, 57.56 0.48 C60.17 0.16, 62.82 0, 65.45 0 C68.08 0, 70.73 0.16, 73.34 0.48 C75.95 0.79, 78.56 1.27, 81.11 1.9 C83.66 2.53, 86.2 3.32, 88.66 4.25 C91.11 5.19, 93.53 6.27, 95.86 7.5 C98.19 8.72, 100.46 10.09, 102.63 11.59 C104.79 13.08, 106.88 14.72, 108.85 16.46 C110.82 18.2, 112.69 20.08, 114.44 22.05 C116.18 24.02, 117.82 26.11, 119.31 28.27 C120.8 30.43, 122.18 32.7, 123.4 35.03 C124.62 37.36, 125.71 39.78, 126.64 42.24 C127.58 44.7, 128.36 47.23, 128.99 49.79 C129.62 52.34, 130.1 54.95, 130.42 57.56 C130.74 60.17, 130.9 62.82, 130.9 65.45" stroke="transparent" stroke-width="1" fill="none"></path></g><g stroke-opacity="0.2" fill-opacity="0.2" transform="translate(46.76242582871669 161.933656513982) rotate(0 33.90625 11.5)"><text x="33.90625" y="18.400390625" font-family="Helvetica, Segoe UI Emoji" font-size="20px" fill="#ffffff" text-anchor="middle" style="white-space: pre;" direction="ltr" dominant-baseline="alphabetic">widgets</text></g><g stroke-linecap="round" transform="translate(209.80698420124713 10.000000036860456) rotate(0 65.447987735526 65.447987735526)"><path d="M130.9 65.45 C130.9 68.08, 130.74 70.73, 130.42 73.34 C130.1 75.95, 129.62 78.56, 128.99 81.11 C128.36 83.66, 127.58 86.2, 126.64 88.66 C125.71 91.11, 124.62 93.53, 123.4 95.86 C122.18 98.19, 120.8 100.46, 119.31 102.63 C117.82 104.79, 116.18 106.88, 114.44 108.85 C112.69 110.82, 110.82 112.69, 108.85 114.44 C106.88 116.18, 104.79 117.82, 102.63 119.31 C100.46 120.8, 98.19 122.18, 95.86 123.4 C93.53 124.62, 91.11 125.71, 88.66 126.64 C86.2 127.58, 83.66 128.36, 81.11 128.99 C78.56 129.62, 75.95 130.1, 73.34 130.42 C70.73 130.74, 68.08 130.9, 65.45 130.9 C62.82 130.9, 60.17 130.74, 57.56 130.42 C54.95 130.1, 52.34 129.62, 49.79 128.99 C47.23 128.36, 44.7 127.58, 42.24 126.64 C39.78 125.71, 37.36 124.62, 35.03 123.4 C32.7 122.18, 30.43 120.8, 28.27 119.31 C26.11 117.82, 24.02 116.18, 22.05 114.44 C20.08 112.69, 18.2 110.82, 16.46 108.85 C14.72 106.88, 13.08 104.79, 11.59 102.63 C10.09 100.46, 8.72 98.19, 7.5 95.86 C6.27 93.53, 5.19 91.11, 4.25 88.66 C3.32 86.2, 2.53 83.66, 1.9 81.11 C1.27 78.56, 0.79 75.95, 0.48 73.34 C0.16 70.73, 0 68.08, 0 65.45 C0 62.82, 0.16 60.17, 0.48 57.56 C0.79 54.95, 1.27 52.34, 1.9 49.79 C2.53 47.23, 3.32 44.7, 4.25 42.24 C5.19 39.78, 6.27 37.36, 7.5 35.03 C8.72 32.7, 10.09 30.43, 11.59 28.27 C13.08 26.11, 14.72 24.02, 16.46 22.05 C18.2 20.08, 20.08 18.2, 22.05 16.46 C24.02 14.72, 26.11 13.08, 28.27 11.59 C30.43 10.09, 32.7 8.72, 35.03 7.5 C37.36 6.27, 39.78 5.19, 42.24 4.25 C44.7 3.32, 47.23 2.53, 49.79 1.9 C52.34 1.27, 54.95 0.79, 57.56 0.48 C60.17 0.16, 62.82 0, 65.45 0 C68.08 0, 70.73 0.16, 73.34 0.48 C75.95 0.79, 78.56 1.27, 81.11 1.9 C83.66 2.53, 86.2 3.32, 88.66 4.25 C91.11 5.19, 93.53 6.27, 95.86 7.5 C98.19 8.72, 100.46 10.09, 102.63 11.59 C104.79 13.08, 106.88 14.72, 108.85 16.46 C110.82 18.2, 112.69 20.08, 114.44 22.05 C116.18 24.02, 117.82 26.11, 119.31 28.27 C120.8 30.43, 122.18 32.7, 123.4 35.03 C124.62 37.36, 125.71 39.78, 126.64 42.24 C127.58 44.7, 128.36 47.23, 128.99 49.79 C129.62 52.34, 130.1 54.95, 130.42 57.56 C130.74 60.17, 130.9 62.82, 130.9 65.45" stroke="none" stroke-width="0" fill="#228be6"></path><path d="M130.9 65.45 C130.9 68.08, 130.74 70.73, 130.42 73.34 C130.1 75.95, 129.62 78.56, 128.99 81.11 C128.36 83.66, 127.58 86.2, 126.64 88.66 C125.71 91.11, 124.62 93.53, 123.4 95.86 C122.18 98.19, 120.8 100.46, 119.31 102.63 C117.82 104.79, 116.18 106.88, 114.44 108.85 C112.69 110.82, 110.82 112.69, 108.85 114.44 C106.88 116.18, 104.79 117.82, 102.63 119.31 C100.46 120.8, 98.19 122.18, 95.86 123.4 C93.53 124.62, 91.11 125.71, 88.66 126.64 C86.2 127.58, 83.66 128.36, 81.11 128.99 C78.56 129.62, 75.95 130.1, 73.34 130.42 C70.73 130.74, 68.08 130.9, 65.45 130.9 C62.82 130.9, 60.17 130.74, 57.56 130.42 C54.95 130.1, 52.34 129.62, 49.79 128.99 C47.23 128.36, 44.7 127.58, 42.24 126.64 C39.78 125.71, 37.36 124.62, 35.03 123.4 C32.7 122.18, 30.43 120.8, 28.27 119.31 C26.11 117.82, 24.02 116.18, 22.05 114.44 C20.08 112.69, 18.2 110.82, 16.46 108.85 C14.72 106.88, 13.08 104.79, 11.59 102.63 C10.09 100.46, 8.72 98.19, 7.5 95.86 C6.27 93.53, 5.19 91.11, 4.25 88.66 C3.32 86.2, 2.53 83.66, 1.9 81.11 C1.27 78.56, 0.79 75.95, 0.48 73.34 C0.16 70.73, 0 68.08, 0 65.45 C0 62.82, 0.16 60.17, 0.48 57.56 C0.79 54.95, 1.27 52.34, 1.9 49.79 C2.53 47.23, 3.32 44.7, 4.25 42.24 C5.19 39.78, 6.27 37.36, 7.5 35.03 C8.72 32.7, 10.09 30.43, 11.59 28.27 C13.08 26.11, 14.72 24.02, 16.46 22.05 C18.2 20.08, 20.08 18.2, 22.05 16.46 C24.02 14.72, 26.11 13.08, 28.27 11.59 C30.43 10.09, 32.7 8.72, 35.03 7.5 C37.36 6.27, 39.78 5.19, 42.24 4.25 C44.7 3.32, 47.23 2.53, 49.79 1.9 C52.34 1.27, 54.95 0.79, 57.56 0.48 C60.17 0.16, 62.82 0, 65.45 0 C68.08 0, 70.73 0.16, 73.34 0.48 C75.95 0.79, 78.56 1.27, 81.11 1.9 C83.66 2.53, 86.2 3.32, 88.66 4.25 C91.11 5.19, 93.53 6.27, 95.86 7.5 C98.19 8.72, 100.46 10.09, 102.63 11.59 C104.79 13.08, 106.88 14.72, 108.85 16.46 C110.82 18.2, 112.69 20.08, 114.44 22.05 C116.18 24.02, 117.82 26.11, 119.31 28.27 C120.8 30.43, 122.18 32.7, 123.4 35.03 C124.62 37.36, 125.71 39.78, 126.64 42.24 C127.58 44.7, 128.36 47.23, 128.99 49.79 C129.62 52.34, 130.1 54.95, 130.42 57.56 C130.74 60.17, 130.9 62.82, 130.9 65.45" stroke="transparent" stroke-width="1" fill="none"></path></g><g transform="translate(253.5752843287171 63.94798851398218) rotate(0 21.6796875 11.5)"><text x="21.6796875" y="18.400390625" font-family="Helvetica, Segoe UI Emoji" font-size="20px" fill="#ffffff" text-anchor="middle" style="white-space: pre;" direction="ltr" dominant-baseline="alphabetic">state</text></g><g stroke-linecap="round"><g stroke-opacity="0.2" fill-opacity="0.2" transform="translate(81.93693049502667 248.1518420814882) rotate(0 58.03214900399462 20.321760625028446)"><path d="M1.2 -1.08 C5.9 5.84, 10.13 34.69, 29.16 41.54 C48.2 48.4, 100.83 40.31, 115.41 40.05" stroke="#15aabf" stroke-width="2.5" fill="none" stroke-dasharray="1.5 8"></path></g><g stroke-opacity="0.2" fill-opacity="0.2" transform="translate(81.93693049502667 248.1518420814882) rotate(0 58.03214900399462 20.321760625028446)"><path d="M92.68 50.46 C99.46 45.48, 111.33 41.29, 115.41 40.05" stroke="#15aabf" stroke-width="2.5" fill="none" stroke-dasharray="1.5 6"></path></g><g stroke-opacity="0.2" fill-opacity="0.2" transform="translate(81.93693049502667 248.1518420814882) rotate(0 58.03214900399462 20.321760625028446)"><path d="M91.31 33.42 C98.61 34.85, 111 37.1, 115.41 40.05" stroke="#15aabf" stroke-width="2.5" fill="none" stroke-dasharray="1.5 6"></path></g></g><mask></mask><g stroke-opacity="0.2" fill-opacity="0.2" transform="translate(73.8412732281165 299.8942488535422) rotate(0 36.1376953125 11.5)"><text x="36.1376953125" y="18.400390625" font-family="Helvetica, Segoe UI Emoji" font-size="20px" fill="#15aabf" text-anchor="middle" style="white-space: pre;" direction="ltr" dominant-baseline="alphabetic">produce</text></g><g stroke-linecap="round"><g transform="translate(342.187491481003 240.46444641414928) rotate(0 7.776984215072957 -59.83714986025984)"><path d="M0 0 C3.71 -9.38, 23.36 -36.35, 22.24 -56.3 C21.13 -76.24, -1.87 -109.11, -6.69 -119.67 M0 0 C3.71 -9.38, 23.36 -36.35, 22.24 -56.3 C21.13 -76.24, -1.87 -109.11, -6.69 -119.67" stroke="#7950f2" stroke-width="2" fill="none"></path></g><g transform="translate(342.187491481003 240.46444641414928) rotate(0 7.776984215072957 -59.83714986025984)"><path d="M-6.69 -119.67 L5.48 -110.91 L-5.58 -104.72 L-6.69 -119.67" stroke="none" stroke-width="0" fill="#7950f2" fill-rule="evenodd"></path><path d="M-6.69 -119.67 C-3.54 -117.41, -0.39 -115.14, 5.48 -110.91 M-6.69 -119.67 C-2.54 -116.69, 1.61 -113.7, 5.48 -110.91 M5.48 -110.91 C1.22 -108.52, -3.05 -106.13, -5.58 -104.72 M5.48 -110.91 C1.59 -108.73, -2.31 -106.55, -5.58 -104.72 M-5.58 -104.72 C-5.88 -108.82, -6.19 -112.92, -6.69 -119.67 M-5.58 -104.72 C-5.89 -108.86, -6.19 -113.01, -6.69 -119.67 M-6.69 -119.67 C-6.69 -119.67, -6.69 -119.67, -6.69 -119.67 M-6.69 -119.67 C-6.69 -119.67, -6.69 -119.67, -6.69 -119.67" stroke="#7950f2" stroke-width="2" fill="none"></path></g></g><mask></mask><g transform="translate(377.9368041165792 156.22729720982193) rotate(0 26.24609375 9.200000000000045)"><text x="26.24609375" y="14.720312499999999" font-family="Helvetica, Segoe UI Emoji" font-size="16px" fill="#7950f2" text-anchor="middle" style="white-space: pre;" direction="ltr" dominant-baseline="alphabetic">change</text></g><g stroke-linecap="round"><g transform="translate(209.57777353265442 37.98141708011144) rotate(0 -53.325606853425256 31.473463758956086)"><path d="M0 0 C-10.98 0.5, -48.13 -7.47, -65.91 3.02 C-83.68 13.51, -99.86 52.96, -106.65 62.95 M0 0 C-10.98 0.5, -48.13 -7.47, -65.91 3.02 C-83.68 13.51, -99.86 52.96, -106.65 62.95" stroke="#228be6" stroke-width="2" fill="none"></path></g><g transform="translate(209.57777353265442 37.98141708011144) rotate(0 -53.325606853425256 31.473463758956086)"><path d="M-106.65 62.95 L-105.67 47.98 L-94.55 54.08 L-106.65 62.95" stroke="none" stroke-width="0" fill="#228be6" fill-rule="evenodd"></path><path d="M-106.65 62.95 C-106.31 57.69, -105.96 52.44, -105.67 47.98 M-106.65 62.95 C-106.28 57.24, -105.9 51.53, -105.67 47.98 M-105.67 47.98 C-102.2 49.88, -98.73 51.79, -94.55 54.08 M-105.67 47.98 C-102.6 49.66, -99.53 51.35, -94.55 54.08 M-94.55 54.08 C-97.26 56.07, -99.98 58.06, -106.65 62.95 M-94.55 54.08 C-99.15 57.45, -103.74 60.81, -106.65 62.95 M-106.65 62.95 C-106.65 62.95, -106.65 62.95, -106.65 62.95 M-106.65 62.95 C-106.65 62.95, -106.65 62.95, -106.65 62.95" stroke="#228be6" stroke-width="2" fill="none"></path></g></g><mask></mask><g stroke-linecap="round" transform="translate(375.93680435007104 176.627297206373) rotate(0 49.98948419268345 14.200000000000045)"><path d="M7.1 0 C37.2 0, 67.3 0, 92.88 0 C97.61 0, 99.98 2.37, 99.98 7.1 C99.98 10.92, 99.98 14.74, 99.98 21.3 C99.98 26.03, 97.61 28.4, 92.88 28.4 C73.01 28.4, 53.13 28.4, 7.1 28.4 C2.37 28.4, 0 26.03, 0 21.3 C0 16.72, 0 12.14, 0 7.1 C0 2.37, 2.37 0, 7.1 0" stroke="none" stroke-width="0" fill="#7950f2"></path><path d="M7.1 0 C25.09 0, 43.08 0, 92.88 0 M92.88 0 C97.61 0, 99.98 2.37, 99.98 7.1 M99.98 7.1 C99.98 10.89, 99.98 14.68, 99.98 21.3 M99.98 21.3 C99.98 26.03, 97.61 28.4, 92.88 28.4 M92.88 28.4 C59.66 28.4, 26.44 28.4, 7.1 28.4 M7.1 28.4 C2.37 28.4, 0 26.03, 0 21.3 M0 21.3 C0 15.9, 0 10.5, 0 7.1 M0 7.1 C0 2.37, 2.37 0, 7.1 0" stroke="transparent" stroke-width="1.5" fill="none" stroke-dasharray="1.5 7"></path></g><g transform="translate(382.7817572927545 181.627297206373) rotate(0 43.14453125 9.200000000000045)"><text x="43.14453125" y="14.720312499999999" font-family="Helvetica, Segoe UI Emoji" font-size="16px" fill="#ffffff" text-anchor="middle" style="white-space: pre;" direction="ltr" dominant-baseline="alphabetic">update logic</text></g><g transform="translate(51.09836376650833 10) rotate(0 27.5703125 9.200000000000045)"><text x="0" y="14.720312499999999" font-family="Helvetica, Segoe UI Emoji" font-size="16px" fill="#228be6" text-anchor="start" style="white-space: pre;" direction="ltr" dominant-baseline="alphabetic">dictates</text></g><g stroke-linecap="round" transform="translate(10 30.39999999655106) rotate(0 49.989484192683335 14.200000000000045)"><path d="M7.1 0 C34.52 0, 61.93 0, 92.88 0 C97.61 0, 99.98 2.37, 99.98 7.1 C99.98 11.44, 99.98 15.79, 99.98 21.3 C99.98 26.03, 97.61 28.4, 92.88 28.4 C70.38 28.4, 47.87 28.4, 7.1 28.4 C2.37 28.4, 0 26.03, 0 21.3 C0 17.88, 0 14.46, 0 7.1 C0 2.37, 2.37 0, 7.1 0" stroke="none" stroke-width="0" fill="#228be6"></path><path d="M7.1 0 C33.69 0, 60.29 0, 92.88 0 M92.88 0 C97.61 0, 99.98 2.37, 99.98 7.1 M99.98 7.1 C99.98 11.88, 99.98 16.67, 99.98 21.3 M99.98 21.3 C99.98 26.03, 97.61 28.4, 92.88 28.4 M92.88 28.4 C67.14 28.4, 41.4 28.4, 7.1 28.4 M7.1 28.4 C2.37 28.4, 0 26.03, 0 21.3 M0 21.3 C0 18.08, 0 14.86, 0 7.1 M0 7.1 C0 2.37, 2.37 0, 7.1 0" stroke="transparent" stroke-width="1.5" fill="none" stroke-dasharray="1.5 7"></path></g><g transform="translate(25.30979669268345 35.39999999655106) rotate(0 34.6796875 9.200000000000045)"><text x="34.6796875" y="14.720312499999999" font-family="Helvetica, Segoe UI Emoji" font-size="16px" fill="#ffffff" text-anchor="middle" style="white-space: pre;" direction="ltr" dominant-baseline="alphabetic">view logic</text></g></svg>