<?xml version="1.0" encoding="UTF-8"?>
<svg width="170" height="170" fill="none" version="1.1" viewBox="42 31 170 170" xmlns="http://www.w3.org/2000/svg"><rect x="42" y="31.001" width="169.9" height="169.9" rx="49.815" fill="url(#paint1_linear)"/><path d="m182.62 65.747-28.136 28.606-6.13-6.0291 28.136-28.606 6.13 6.0291zm-26.344 0.218-42.204 42.909-6.13-6.029 42.204-42.909 6.13 6.0291zm-61.648 23.913c5.3254-5.3831 10.65-10.765 21.569-21.867l6.13 6.0291c-10.927 11.11-16.258 16.498-21.587 21.885-4.4007 4.4488-8.8009 8.8968-16.359 16.573l31.977 8.358 25.968-26.402 6.13 6.0292-25.968 26.402 8.907 31.908 42.138-42.087 6.076 6.083-49.109 49.05-45.837-12.628-13.394-45.646 1.7714-1.801c10.928-11.111 16.258-16.499 21.588-21.886zm28.419 70.99-8.846-31.689-31.831-8.32 9.1945 31.335 31.482 8.674zm47.734-56.517 7.122-7.1221-6.08-6.0797-7.147 7.1474-30.171 30.674 6.13 6.029 30.146-30.649z" clip-rule="evenodd" fill="url(#paint2_linear)" fill-rule="evenodd"/><defs><linearGradient id="paint1_linear" x1="212" x2="57.5" y1="31.001" y2="189" gradientUnits="userSpaceOnUse"><stop stop-color="#00A3FF" offset="0"/><stop stop-color="#30f" offset="1"/></linearGradient><linearGradient id="paint2_linear" x1="86.098" x2="206.01" y1="158.28" y2="35.327" gradientUnits="userSpaceOnUse"><stop stop-color="#fff" offset="0"/><stop stop-color="#fff" offset="1"/></linearGradient></defs></svg>
